<?xml version="1.0" encoding="utf-8"?>
<!-- Generator: Adobe Illustrator 27.5.0, SVG Export Plug-In . SVG Version: 6.00 Build 0)  -->
<svg version="1.1" xmlns="http://www.w3.org/2000/svg" xmlns:xlink="http://www.w3.org/1999/xlink" x="0px" y="0px"
	 viewBox="0 0 2000 3000" style="enable-background:new 0 0 2000 3000;" xml:space="preserve">
<g id="Слой_2">
	<g>
		<g>
			<rect y="-0.001" style="fill:#F6F0F8;" width="2000" height="3000"/>
		</g>
		<g>
			<path style="fill:#333343;" d="M1515.373,736h-2.022v-212.14c0-70.339-57.021-127.36-127.36-127.36H614.01
				c-70.339,0-127.36,57.021-127.36,127.36V736h-2.022c-9.183,0-16.627,7.444-16.627,16.628v146.745
				c0,9.183,7.444,16.627,16.627,16.627h2.022v35h-2.022c-9.183,0-16.627,7.444-16.627,16.628v146.745
				c0,9.183,7.444,16.627,16.627,16.627h2.022v1285.14c0,70.339,57.021,127.36,127.36,127.36h771.98
				c70.34,0,127.36-57.021,127.36-127.36V1006h2.022c9.183,0,16.627-7.444,16.627-16.627V752.627
				C1532,743.444,1524.556,736,1515.373,736z"/>
			<path style="fill:#FFFFFF;" d="M1372.846,2512H627.154c-57.13,0-103.444-46.314-103.444-103.444V531.444
				C523.71,474.313,570.024,428,627.154,428h745.691c57.131,0,103.444,46.313,103.444,103.444v1877.112
				C1476.29,2465.686,1429.977,2512,1372.846,2512z"/>
		</g>
		<g>
			<g>
				<g>
					<path style="fill:#3E3D51;" d="M689.328,563.312h-61c-1.381,0-2.5-1.119-2.5-2.5c0-1.381,1.119-2.5,2.5-2.5h61
						c1.381,0,2.5,1.119,2.5,2.5C691.828,562.192,690.709,563.312,689.328,563.312z"/>
					<path style="fill:#3E3D51;" d="M689.328,585.812h-61c-1.381,0-2.5-1.119-2.5-2.5c0-1.381,1.119-2.5,2.5-2.5h61
						c1.381,0,2.5,1.119,2.5,2.5C691.828,584.692,690.709,585.812,689.328,585.812z"/>
					<path style="fill:#3E3D51;" d="M689.328,608.312h-61c-1.381,0-2.5-1.119-2.5-2.5c0-1.381,1.119-2.5,2.5-2.5h61
						c1.381,0,2.5,1.119,2.5,2.5C691.828,607.192,690.709,608.312,689.328,608.312z"/>
				</g>
				<g>
					<g>
						<path style="fill:#3E3D51;" d="M1227.578,595.187c-2.102-0.7-3.752-1.607-4.952-2.722l1.586-3.344
							c1.144,1.029,2.608,1.865,4.395,2.508c1.786,0.643,3.623,0.964,5.51,0.964c2.486,0,4.344-0.421,5.573-1.265
							c1.229-0.843,1.844-1.965,1.844-3.366c0-1.029-0.337-1.865-1.008-2.508c-0.672-0.643-1.501-1.136-2.486-1.479
							c-0.986-0.343-2.38-0.729-4.181-1.158c-2.258-0.543-4.08-1.086-5.466-1.629c-1.387-0.543-2.572-1.379-3.559-2.508
							c-0.986-1.129-1.479-2.651-1.479-4.566c0-1.601,0.422-3.044,1.265-4.33c0.843-1.286,2.123-2.315,3.838-3.087
							c1.715-0.772,3.844-1.158,6.388-1.158c1.771,0,3.516,0.229,5.23,0.686c1.715,0.457,3.187,1.115,4.416,1.972l-1.415,3.43
							c-1.258-0.8-2.601-1.407-4.03-1.822c-1.429-0.414-2.829-0.622-4.201-0.622c-2.43,0-4.252,0.443-5.466,1.329
							c-1.216,0.886-1.822,2.03-1.822,3.43c0,1.029,0.343,1.865,1.028,2.508c0.687,0.643,1.536,1.143,2.552,1.5
							c1.014,0.358,2.393,0.736,4.137,1.136c2.258,0.543,4.073,1.086,5.445,1.629c1.371,0.543,2.551,1.372,3.536,2.487
							c0.986,1.115,1.479,2.615,1.479,4.502c0,1.572-0.429,3.009-1.286,4.309c-0.857,1.301-2.158,2.33-3.901,3.087
							c-1.744,0.757-3.888,1.136-6.431,1.136C1231.857,596.237,1229.679,595.888,1227.578,595.187z"/>
						<path style="fill:#3E3D51;" d="M1260.226,585.305l-4.716,4.373v6.217h-4.116v-31.811h4.116v20.407l12.39-11.318h4.974
							l-9.561,9.389l10.504,13.333h-5.06L1260.226,585.305z"/>
						<path style="fill:#3E3D51;" d="M1277.567,568.027c-0.529-0.515-0.793-1.143-0.793-1.887c0-0.743,0.264-1.378,0.793-1.908
							c0.528-0.529,1.193-0.793,1.993-0.793s1.465,0.251,1.994,0.75c0.528,0.501,0.793,1.122,0.793,1.865
							c0,0.772-0.265,1.422-0.793,1.951c-0.529,0.529-1.194,0.793-1.994,0.793S1278.096,568.542,1277.567,568.027z
							 M1277.503,573.172h4.116v22.723h-4.116V573.172z"/>
						<path style="fill:#3E3D51;" d="M1307.428,574.415c1.743,0.972,3.108,2.33,4.095,4.073c0.985,1.744,1.479,3.759,1.479,6.045
							c0,2.287-0.493,4.309-1.479,6.066c-0.986,1.758-2.352,3.123-4.095,4.094c-1.744,0.972-3.716,1.458-5.916,1.458
							c-1.63,0-3.123-0.315-4.48-0.943c-1.358-0.628-2.509-1.544-3.451-2.744v11.747h-4.116v-31.04h3.944v3.602
							c0.914-1.258,2.072-2.208,3.473-2.851c1.4-0.644,2.943-0.965,4.631-0.965C1303.712,572.958,1305.684,573.444,1307.428,574.415
							z M1305.091,591.543c1.158-0.671,2.072-1.614,2.744-2.83c0.671-1.214,1.008-2.608,1.008-4.18c0-1.572-0.337-2.965-1.008-4.18
							c-0.672-1.214-1.586-2.15-2.744-2.808c-1.157-0.657-2.465-0.986-3.923-0.986c-1.43,0-2.722,0.336-3.88,1.008
							c-1.157,0.672-2.072,1.608-2.744,2.808c-0.672,1.201-1.007,2.587-1.007,4.159c0,1.572,0.328,2.966,0.985,4.18
							c0.657,1.215,1.572,2.158,2.744,2.83c1.172,0.672,2.472,1.007,3.901,1.007C1302.626,592.55,1303.934,592.215,1305.091,591.543
							z"/>
					</g>
					<path style="fill:#3E3D51;" d="M1326.5,630.983h-117.328c-26.286,0-47.672-21.385-47.672-47.671
						c0-26.286,21.386-47.671,47.672-47.671H1326.5c26.286,0,47.672,21.385,47.672,47.671
						C1374.172,609.598,1352.786,630.983,1326.5,630.983z M1209.172,540.64c-23.529,0-42.672,19.142-42.672,42.671
						s19.143,42.671,42.672,42.671H1326.5c23.529,0,42.672-19.142,42.672-42.671s-19.143-42.671-42.672-42.671H1209.172z"/>
				</g>
			</g>
			<g>
				<path style="fill:#8282A8;" d="M938.811,2323.5c-8.423,0-15.276,6.852-15.276,15.275s6.852,15.275,15.276,15.275
					c8.423,0,15.275-6.852,15.275-15.275S947.234,2323.5,938.811,2323.5z"/>
				<path style="fill:#8282A8;" d="M1000,2354.275c-8.423,0-15.275-6.854-15.275-15.275c0-8.424,6.852-15.275,15.275-15.275
					c8.423,0,15.275,6.852,15.275,15.275C1015.275,2347.422,1008.423,2354.275,1000,2354.275z M1000,2328.725
					c-5.666,0-10.275,4.609-10.275,10.275s4.609,10.275,10.275,10.275s10.275-4.609,10.275-10.275S1005.666,2328.725,1000,2328.725z
					"/>
				<path style="fill:#8282A8;" d="M1061.189,2354.5c-8.423,0-15.275-6.853-15.275-15.275c0-8.424,6.853-15.277,15.275-15.277
					c8.424,0,15.276,6.854,15.276,15.277C1076.466,2347.647,1069.613,2354.5,1061.189,2354.5z M1061.189,2328.947
					c-5.666,0-10.275,4.611-10.275,10.277s4.609,10.275,10.275,10.275s10.276-4.609,10.276-10.275
					S1066.855,2328.947,1061.189,2328.947z"/>
			</g>
			<g>
				<g>
					<path style="fill:#3E3D51;" d="M680.65,1851.646h17.894v81.215h50.381v15.141H680.65V1851.646z"/>
					<path style="fill:#3E3D51;" d="M773.704,1944.148c-5.966-3.211-10.622-7.686-13.972-13.422
						c-3.351-5.734-5.024-12.227-5.024-19.477c0-7.248,1.673-13.719,5.024-19.41c3.349-5.688,8.005-10.139,13.972-13.352
						c5.964-3.211,12.664-4.818,20.097-4.818c7.524,0,14.268,1.607,20.235,4.818c5.964,3.213,10.621,7.664,13.972,13.352
						c3.349,5.691,5.023,12.162,5.023,19.41c0,7.25-1.675,13.742-5.023,19.477c-3.351,5.736-8.008,10.211-13.972,13.422
						c-5.967,3.213-12.711,4.818-20.235,4.818C786.367,1948.967,779.668,1947.361,773.704,1944.148z M809.493,1927.904
						c4.13-4.219,6.195-9.771,6.195-16.654s-2.065-12.434-6.195-16.656c-4.129-4.221-9.36-6.332-15.692-6.332
						c-6.332,0-11.541,2.111-15.623,6.332c-4.085,4.223-6.125,9.773-6.125,16.656s2.04,12.436,6.125,16.654
						c4.082,4.223,9.291,6.332,15.623,6.332C800.133,1934.236,805.364,1932.127,809.493,1927.904z"/>
					<path style="fill:#3E3D51;" d="M892.083,1873.67v16.381c-1.469-0.275-2.8-0.412-3.991-0.412c-6.7,0-11.931,1.949-15.693,5.85
						c-3.763,3.902-5.642,9.521-5.642,16.861v35.652h-17.207v-73.506h16.38v10.736
						C870.885,1877.525,879.602,1873.67,892.083,1873.67z"/>
					<path style="fill:#3E3D51;" d="M974.813,1916.756h-57.676c1.008,5.416,3.647,9.703,7.915,12.869
						c4.267,3.166,9.566,4.75,15.898,4.75c8.074,0,14.729-2.66,19.96-7.984l9.223,10.6c-3.304,3.947-7.481,6.93-12.526,8.948
						c-5.048,2.019-10.737,3.028-17.069,3.028c-8.077,0-15.189-1.605-21.336-4.818c-6.149-3.211-10.898-7.686-14.247-13.422
						c-3.351-5.734-5.023-12.227-5.023-19.477c0-7.158,1.628-13.604,4.887-19.342c3.255-5.732,7.777-10.207,13.558-13.42
						c5.781-3.211,12.296-4.818,19.546-4.818c7.158,0,13.56,1.584,19.202,4.75c5.645,3.166,10.049,7.617,13.215,13.353
						c3.166,5.735,4.749,12.366,4.749,19.89C975.088,1912.855,974.996,1914.553,974.813,1916.756z M923.95,1892.322
						c-3.809,3.258-6.125,7.594-6.951,13.008h41.708c-0.736-5.32-2.983-9.635-6.745-12.939c-3.764-3.303-8.444-4.955-14.041-4.955
						C932.416,1887.436,927.757,1889.066,923.95,1892.322z"/>
					<path style="fill:#3E3D51;" d="M1106.408,1881.723c5.412,5.369,8.121,13.422,8.121,24.158v42.121h-17.207v-39.918
						c0-6.424-1.424-11.264-4.268-14.523c-2.846-3.256-6.93-4.887-12.25-4.887c-5.781,0-10.418,1.906-13.904,5.713
						c-3.488,3.809-5.23,9.246-5.23,16.313v37.303h-17.207v-39.918c0-6.424-1.424-11.264-4.266-14.523
						c-2.846-3.256-6.93-4.887-12.252-4.887c-5.873,0-10.529,1.883-13.971,5.645c-3.441,3.764-5.162,9.223-5.162,16.381v37.303
						h-17.207v-73.506h16.381v9.361c2.752-3.305,6.193-5.828,10.324-7.572c4.129-1.742,8.717-2.615,13.764-2.615
						c5.508,0,10.395,1.033,14.66,3.098c4.268,2.064,7.641,5.117,10.117,9.154c3.029-3.855,6.928-6.859,11.701-9.018
						c4.771-2.154,10.049-3.234,15.83-3.234C1093.65,1873.67,1100.992,1876.354,1106.408,1881.723z"/>
					<path style="fill:#3E3D51;" d="M1179.773,1946.625c-5.691-1.559-10.233-3.531-13.628-5.918l6.607-13.076
						c3.304,2.201,7.271,3.969,11.907,5.299c4.633,1.332,9.198,1.996,13.696,1.996c10.276,0,15.417-2.705,15.417-8.121
						c0-2.568-1.308-4.357-3.923-5.369c-2.616-1.008-6.814-1.973-12.596-2.891c-6.057-0.916-10.99-1.973-14.798-3.166
						c-3.809-1.191-7.112-3.279-9.91-6.264c-2.801-2.98-4.199-7.133-4.199-12.457c0-6.973,2.912-12.549,8.741-16.725
						c5.826-4.176,13.696-6.264,23.607-6.264c5.046,0,10.094,0.574,15.142,1.721c5.046,1.148,9.176,2.684,12.389,4.611
						l-6.607,13.078c-6.241-3.67-13.262-5.508-21.061-5.508c-5.048,0-8.879,0.758-11.494,2.271
						c-2.615,1.516-3.923,3.512-3.923,5.988c0,2.754,1.398,4.703,4.198,5.85c2.798,1.148,7.135,2.227,13.008,3.236
						c5.872,0.918,10.69,1.975,14.454,3.166c3.762,1.193,6.996,3.213,9.704,6.057c2.706,2.846,4.061,6.883,4.061,12.113
						c0,6.883-2.982,12.389-8.947,16.519c-5.966,4.128-14.088,6.194-24.364,6.194
						C1191.289,1948.967,1185.462,1948.186,1179.773,1946.625z"/>
					<path style="fill:#3E3D51;" d="M1246.259,1859.424c-2.112-1.973-3.166-4.428-3.166-7.365c0-2.936,1.054-5.391,3.166-7.363
						c2.11-1.973,4.726-2.961,7.847-2.961c3.118,0,5.733,0.943,7.846,2.822c2.11,1.883,3.166,4.246,3.166,7.09
						c0,3.027-1.032,5.574-3.097,7.639c-2.065,2.064-4.704,3.098-7.915,3.098
						C1250.984,1862.383,1248.369,1861.398,1246.259,1859.424z M1245.433,1874.496h17.207v73.506h-17.207V1874.496z"/>
					<path style="fill:#3E3D51;" d="M1329.398,1944.01c-2.02,1.652-4.474,2.891-7.364,3.717s-5.942,1.24-9.154,1.24
						c-8.076,0-14.315-2.111-18.72-6.332c-4.405-4.221-6.607-10.369-6.607-18.445v-35.377h-12.113v-13.766h12.113v-16.793h17.206
						v16.793h19.685v13.766h-19.685v34.963c0,3.58,0.871,6.311,2.615,8.191c1.742,1.881,4.268,2.82,7.571,2.82
						c3.854,0,7.065-1.008,9.636-3.027L1329.398,1944.01z"/>
				</g>
				<g>
					<path style="fill:#8282A8;" d="M632.491,2045.082h11.21c2.812,0,5.307,0.557,7.486,1.672c2.178,1.115,3.87,2.68,5.073,4.693
						c1.203,2.014,1.805,4.326,1.805,6.936s-0.602,4.92-1.805,6.934c-1.203,2.014-2.894,3.578-5.073,4.693
						c-2.179,1.115-4.674,1.672-7.486,1.672h-11.21V2045.082z M643.473,2068.375c2.153,0,4.047-0.418,5.681-1.254
						c1.634-0.836,2.895-2.006,3.781-3.514c0.886-1.508,1.33-3.25,1.33-5.225c0-1.977-0.444-3.719-1.33-5.227
						c-0.887-1.506-2.147-2.678-3.781-3.514c-1.634-0.836-3.528-1.254-5.681-1.254h-7.182v19.986H643.473z"/>
					<path style="fill:#8282A8;" d="M666.576,2070.58c-1.596-0.887-2.844-2.109-3.743-3.668c-0.899-1.557-1.349-3.324-1.349-5.301
						c0-1.975,0.449-3.742,1.349-5.302c0.899-1.558,2.147-2.772,3.743-3.647c1.596-0.873,3.395-1.311,5.397-1.311
						c2.001,0,3.793,0.438,5.377,1.311c1.583,0.875,2.824,2.09,3.724,3.647c0.9,1.56,1.349,3.327,1.349,5.302
						c0,1.977-0.45,3.744-1.349,5.301c-0.899,1.559-2.141,2.781-3.724,3.668c-1.584,0.887-3.376,1.33-5.377,1.33
						C669.971,2071.91,668.172,2071.467,666.576,2070.58z M675.449,2067.824c1.026-0.594,1.83-1.43,2.413-2.508
						c0.583-1.076,0.874-2.311,0.874-3.705c0-1.393-0.292-2.627-0.874-3.705c-0.583-1.076-1.387-1.906-2.413-2.488
						c-1.025-0.582-2.185-0.875-3.477-0.875s-2.452,0.293-3.478,0.875c-1.026,0.582-1.837,1.412-2.432,2.488
						c-0.596,1.078-0.893,2.313-0.893,3.705c0,1.395,0.297,2.629,0.893,3.705c0.595,1.078,1.405,1.914,2.432,2.508
						c1.026,0.596,2.186,0.895,3.478,0.895S674.424,2068.42,675.449,2067.824z"/>
					<path style="fill:#8282A8;" d="M687.477,2043.486h3.647v28.195h-3.647V2043.486z"/>
					<path style="fill:#8282A8;" d="M701.308,2070.58c-1.596-0.887-2.844-2.109-3.743-3.668c-0.9-1.557-1.349-3.324-1.349-5.301
						c0-1.975,0.449-3.742,1.349-5.302c0.899-1.558,2.147-2.772,3.743-3.647c1.596-0.873,3.395-1.311,5.396-1.311
						c2.001,0,3.793,0.438,5.378,1.311c1.582,0.875,2.824,2.09,3.724,3.647c0.899,1.56,1.349,3.327,1.349,5.302
						c0,1.977-0.45,3.744-1.349,5.301c-0.899,1.559-2.141,2.781-3.724,3.668c-1.584,0.887-3.377,1.33-5.378,1.33
						C704.702,2071.91,702.904,2071.467,701.308,2070.58z M710.181,2067.824c1.026-0.594,1.83-1.43,2.413-2.508
						c0.582-1.076,0.874-2.311,0.874-3.705c0-1.393-0.292-2.627-0.874-3.705c-0.583-1.076-1.387-1.906-2.413-2.488
						c-1.026-0.582-2.185-0.875-3.477-0.875s-2.452,0.293-3.477,0.875c-1.026,0.582-1.837,1.412-2.433,2.488
						c-0.595,1.078-0.892,2.313-0.892,3.705c0,1.395,0.297,2.629,0.892,3.705c0.596,1.078,1.407,1.914,2.433,2.508
						c1.025,0.596,2.185,0.895,3.477,0.895S709.155,2068.42,710.181,2067.824z"/>
					<path style="fill:#8282A8;" d="M728.516,2052.264c1.241-0.607,2.749-0.912,4.522-0.912v3.535
						c-0.203-0.025-0.481-0.039-0.835-0.039c-1.977,0-3.529,0.59-4.656,1.768c-1.127,1.178-1.691,2.855-1.691,5.035v10.031h-3.648
						v-20.141h3.496v3.383C726.336,2053.76,727.274,2052.871,728.516,2052.264z"/>
					<path style="fill:#8282A8;" d="M749.035,2071.244c-1.52-0.441-2.712-1.006-3.572-1.689l1.52-2.889
						c0.887,0.633,1.963,1.141,3.23,1.52c1.267,0.381,2.546,0.57,3.838,0.57c3.192,0,4.788-0.912,4.788-2.736
						c0-0.607-0.216-1.088-0.646-1.443c-0.432-0.355-0.97-0.613-1.616-0.779c-0.646-0.164-1.564-0.348-2.754-0.551
						c-1.622-0.254-2.945-0.545-3.971-0.875c-1.025-0.328-1.906-0.885-2.641-1.672c-0.735-0.785-1.102-1.887-1.102-3.305
						c0-1.824,0.759-3.287,2.279-4.389c1.52-1.104,3.56-1.654,6.118-1.654c1.343,0,2.685,0.166,4.028,0.494
						c1.343,0.33,2.445,0.773,3.306,1.33l-1.558,2.889c-1.647-1.064-3.585-1.596-5.814-1.596c-1.545,0-2.724,0.252-3.534,0.76
						c-0.811,0.506-1.216,1.178-1.216,2.014c0,0.658,0.228,1.178,0.683,1.559c0.456,0.379,1.02,0.658,1.692,0.836
						c0.671,0.177,1.615,0.379,2.831,0.607c1.621,0.279,2.933,0.576,3.933,0.893s1.856,0.855,2.565,1.615
						c0.709,0.76,1.064,1.824,1.064,3.191c0,1.824-0.779,3.275-2.337,4.352s-3.68,1.615-6.365,1.615
						C752.138,2071.91,750.555,2071.688,749.035,2071.244z"/>
					<path style="fill:#8282A8;" d="M767.104,2046.982c-0.469-0.457-0.703-1.014-0.703-1.673c0-0.657,0.234-1.222,0.703-1.69
						c0.469-0.469,1.057-0.703,1.767-0.703c0.708,0,1.297,0.223,1.767,0.664c0.469,0.445,0.703,0.996,0.703,1.654
						c0,0.684-0.234,1.26-0.703,1.729c-0.469,0.469-1.058,0.703-1.767,0.703C768.161,2047.666,767.572,2047.438,767.104,2046.982z
						 M767.046,2051.541h3.648v20.141h-3.648V2051.541z"/>
					<path style="fill:#8282A8;" d="M788.973,2070.504c-0.533,0.455-1.192,0.805-1.977,1.045c-0.786,0.24-1.596,0.361-2.432,0.361
						c-2.027,0-3.598-0.545-4.712-1.635c-1.116-1.088-1.672-2.646-1.672-4.674v-11.059h-3.421v-3.002h3.421v-4.406h3.647v4.406
						h5.776v3.002h-5.776v10.906c0,1.09,0.272,1.926,0.817,2.508c0.544,0.584,1.323,0.875,2.337,0.875
						c1.114,0,2.065-0.316,2.85-0.949L788.973,2070.504z"/>
					<path style="fill:#8282A8;" d="M817.338,2053.404c1.482,1.367,2.223,3.407,2.223,6.117v12.16h-3.458v-2.66
						c-0.608,0.938-1.476,1.654-2.603,2.146c-1.127,0.494-2.464,0.742-4.009,0.742c-2.255,0-4.06-0.545-5.415-1.635
						c-1.355-1.088-2.033-2.52-2.033-4.293s0.646-3.199,1.938-4.275c1.292-1.076,3.344-1.615,6.156-1.615h5.776v-0.723
						c0-1.57-0.456-2.773-1.368-3.609c-0.912-0.836-2.255-1.254-4.027-1.254c-1.191,0-2.357,0.197-3.497,0.59
						s-2.103,0.918-2.888,1.576l-1.52-2.736c1.038-0.836,2.28-1.475,3.724-1.918c1.444-0.443,2.977-0.666,4.598-0.666
						C813.722,2051.352,815.856,2052.035,817.338,2053.404z M813.709,2068.166c1.014-0.619,1.748-1.5,2.204-2.641v-2.811h-5.624
						c-3.091,0-4.637,1.039-4.637,3.115c0,1.014,0.393,1.811,1.179,2.395c0.785,0.582,1.875,0.873,3.268,0.873
						C811.492,2069.098,812.695,2068.787,813.709,2068.166z"/>
					<path style="fill:#8282A8;" d="M857.542,2053.557c1.482,1.469,2.223,3.646,2.223,6.535v11.59h-3.648v-11.172
						c0-1.951-0.45-3.42-1.349-4.408c-0.899-0.988-2.185-1.482-3.857-1.482c-1.85,0-3.319,0.578-4.408,1.73
						c-1.09,1.152-1.634,2.805-1.634,4.959v10.373h-3.648v-11.172c0-1.951-0.45-3.42-1.349-4.408
						c-0.899-0.988-2.185-1.482-3.857-1.482c-1.85,0-3.319,0.578-4.408,1.73c-1.089,1.152-1.634,2.805-1.634,4.959v10.373h-3.648
						v-20.141h3.496v3.002c0.734-1.037,1.697-1.828,2.887-2.375c1.19-0.543,2.547-0.816,4.066-0.816c1.571,0,2.964,0.318,4.18,0.951
						c1.216,0.633,2.153,1.557,2.812,2.773c0.76-1.166,1.817-2.078,3.173-2.736c1.354-0.658,2.881-0.988,4.579-0.988
						C854.052,2051.352,856.06,2052.088,857.542,2053.557z"/>
					<path style="fill:#8282A8;" d="M884.73,2062.828h-16.339c0.228,1.773,1.007,3.199,2.337,4.275
						c1.33,1.076,2.983,1.615,4.958,1.615c2.407,0,4.345-0.811,5.814-2.434l2.015,2.357c-0.912,1.063-2.047,1.875-3.402,2.432
						c-1.356,0.557-2.869,0.836-4.54,0.836c-2.128,0-4.016-0.438-5.662-1.311c-1.648-0.875-2.92-2.096-3.819-3.668
						c-0.899-1.57-1.349-3.344-1.349-5.32c0-1.949,0.437-3.711,1.311-5.281c0.874-1.57,2.077-2.793,3.61-3.668
						c1.532-0.873,3.261-1.311,5.188-1.311c1.924,0,3.641,0.438,5.148,1.311c1.507,0.875,2.686,2.098,3.534,3.668
						c0.848,1.57,1.273,3.369,1.273,5.396C884.807,2062.006,884.78,2062.371,884.73,2062.828z M870.461,2056.025
						c-1.178,1.064-1.869,2.459-2.07,4.18h12.92c-0.204-1.695-0.894-3.084-2.072-4.16c-1.178-1.076-2.64-1.615-4.388-1.615
						C873.102,2054.43,871.639,2054.961,870.461,2056.025z"/>
					<path style="fill:#8282A8;" d="M901.185,2070.504c-0.533,0.455-1.192,0.805-1.977,1.045c-0.786,0.24-1.596,0.361-2.432,0.361
						c-2.027,0-3.598-0.545-4.712-1.635c-1.115-1.088-1.671-2.646-1.671-4.674v-11.059h-3.421v-3.002h3.421v-4.406h3.647v4.406
						h5.776v3.002h-5.776v10.906c0,1.09,0.272,1.926,0.817,2.508c0.544,0.584,1.323,0.875,2.336,0.875
						c1.115,0,2.064-0.316,2.85-0.949L901.185,2070.504z"/>
					<path style="fill:#8282A8;" d="M908.65,2067.445c0.468,0.494,0.703,1.107,0.703,1.842c0,0.381-0.044,0.748-0.133,1.104
						c-0.088,0.354-0.26,0.898-0.513,1.633l-1.786,5.283h-2.394l1.406-5.662c-0.482-0.178-0.868-0.477-1.159-0.895
						c-0.292-0.418-0.437-0.904-0.437-1.463c0-0.76,0.24-1.379,0.722-1.861c0.48-0.48,1.088-0.723,1.824-0.723
						C907.592,2066.703,908.181,2066.951,908.65,2067.445z"/>
					<path style="fill:#8282A8;" d="M928.106,2070.58c-1.609-0.887-2.869-2.109-3.781-3.668c-0.912-1.557-1.368-3.324-1.368-5.301
						c0-1.975,0.456-3.742,1.368-5.302c0.912-1.558,2.172-2.772,3.781-3.647c1.608-0.873,3.438-1.311,5.491-1.311
						c1.824,0,3.452,0.367,4.883,1.102c1.431,0.736,2.539,1.801,3.325,3.193l-2.774,1.785c-0.633-0.963-1.419-1.684-2.356-2.166
						c-0.938-0.48-1.976-0.723-3.116-0.723c-1.318,0-2.502,0.293-3.553,0.875c-1.052,0.582-1.876,1.412-2.471,2.488
						c-0.595,1.078-0.893,2.313-0.893,3.705c0,1.42,0.297,2.668,0.893,3.744c0.595,1.076,1.418,1.906,2.471,2.488
						c1.051,0.584,2.235,0.875,3.553,0.875c1.14,0,2.178-0.242,3.116-0.723c0.937-0.48,1.723-1.203,2.356-2.166l2.774,1.748
						c-0.785,1.393-1.894,2.463-3.325,3.211c-1.432,0.748-3.059,1.121-4.883,1.121
						C931.544,2071.91,929.714,2071.467,928.106,2070.58z"/>
					<path style="fill:#8282A8;" d="M949.442,2070.58c-1.596-0.887-2.844-2.109-3.743-3.668c-0.899-1.557-1.348-3.324-1.348-5.301
						c0-1.975,0.449-3.742,1.348-5.302c0.899-1.558,2.147-2.772,3.743-3.647c1.596-0.873,3.394-1.311,5.396-1.311
						c2.001,0,3.794,0.438,5.377,1.311c1.583,0.875,2.825,2.09,3.725,3.647c0.898,1.56,1.349,3.327,1.349,5.302
						c0,1.977-0.45,3.744-1.349,5.301c-0.9,1.559-2.142,2.781-3.725,3.668c-1.583,0.887-3.376,1.33-5.377,1.33
						C952.836,2071.91,951.038,2071.467,949.442,2070.58z M958.315,2067.824c1.026-0.594,1.831-1.43,2.413-2.508
						c0.583-1.076,0.875-2.311,0.875-3.705c0-1.393-0.292-2.627-0.875-3.705c-0.582-1.076-1.387-1.906-2.413-2.488
						c-1.025-0.582-2.185-0.875-3.477-0.875s-2.451,0.293-3.477,0.875c-1.025,0.582-1.836,1.412-2.432,2.488
						c-0.595,1.078-0.893,2.313-0.893,3.705c0,1.395,0.297,2.629,0.893,3.705c0.595,1.078,1.406,1.914,2.432,2.508
						c1.026,0.596,2.185,0.895,3.477,0.895S957.289,2068.42,958.315,2067.824z"/>
					<path style="fill:#8282A8;" d="M987.195,2053.574c1.507,1.482,2.261,3.655,2.261,6.518v11.59h-3.648v-11.172
						c0-1.951-0.469-3.42-1.406-4.408c-0.938-0.988-2.28-1.482-4.028-1.482c-1.976,0-3.534,0.578-4.675,1.73
						c-1.14,1.152-1.709,2.805-1.709,4.959v10.373h-3.648v-20.141h3.496v3.041c0.734-1.039,1.729-1.836,2.983-2.395
						c1.254-0.557,2.679-0.836,4.275-0.836C983.654,2051.352,985.688,2052.094,987.195,2053.574z"/>
					<path style="fill:#8282A8;" d="M997.246,2071.244c-1.52-0.441-2.711-1.006-3.572-1.689l1.52-2.889
						c0.886,0.633,1.963,1.141,3.23,1.52c1.267,0.381,2.546,0.57,3.838,0.57c3.191,0,4.787-0.912,4.787-2.736
						c0-0.607-0.215-1.088-0.647-1.443c-0.43-0.355-0.969-0.613-1.614-0.779c-0.646-0.164-1.565-0.348-2.755-0.551
						c-1.621-0.254-2.944-0.545-3.971-0.875c-1.026-0.328-1.906-0.885-2.641-1.672c-0.735-0.785-1.102-1.887-1.102-3.305
						c0-1.824,0.76-3.287,2.28-4.389c1.519-1.104,3.559-1.654,6.118-1.654c1.342,0,2.685,0.166,4.028,0.494
						c1.342,0.33,2.443,0.773,3.305,1.33l-1.557,2.889c-1.648-1.064-3.586-1.596-5.814-1.596c-1.546,0-2.724,0.252-3.534,0.76
						c-0.81,0.506-1.216,1.178-1.216,2.014c0,0.658,0.229,1.178,0.685,1.559c0.456,0.379,1.018,0.658,1.69,0.836
						c0.671,0.177,1.615,0.379,2.831,0.607c1.621,0.279,2.931,0.576,3.933,0.893c1,0.316,1.855,0.855,2.564,1.615
						s1.065,1.824,1.065,3.191c0,1.824-0.779,3.275-2.338,4.352c-1.557,1.076-3.679,1.615-6.364,1.615
						C1000.349,2071.91,998.766,2071.688,997.246,2071.244z"/>
					<path style="fill:#8282A8;" d="M1033.383,2062.828h-16.34c0.227,1.773,1.007,3.199,2.337,4.275
						c1.33,1.076,2.983,1.615,4.959,1.615c2.406,0,4.345-0.811,5.813-2.434l2.015,2.357c-0.912,1.063-2.046,1.875-3.401,2.432
						s-2.869,0.836-4.541,0.836c-2.128,0-4.016-0.438-5.662-1.311c-1.646-0.875-2.92-2.096-3.818-3.668
						c-0.899-1.57-1.35-3.344-1.35-5.32c0-1.949,0.438-3.711,1.312-5.281c0.874-1.57,2.077-2.793,3.609-3.668
						c1.533-0.873,3.262-1.311,5.188-1.311c1.925,0,3.642,0.438,5.148,1.311c1.508,0.875,2.686,2.098,3.534,3.668
						s1.273,3.369,1.273,5.396C1033.459,2062.006,1033.434,2062.371,1033.383,2062.828z M1019.114,2056.025
						c-1.179,1.064-1.869,2.459-2.071,4.18h12.92c-0.203-1.695-0.893-3.084-2.071-4.16c-1.178-1.076-2.641-1.615-4.389-1.615
						S1020.292,2054.961,1019.114,2056.025z"/>
					<path style="fill:#8282A8;" d="M1041.8,2070.58c-1.609-0.887-2.869-2.109-3.781-3.668c-0.912-1.557-1.368-3.324-1.368-5.301
						c0-1.975,0.456-3.742,1.368-5.302c0.912-1.558,2.172-2.772,3.781-3.647c1.608-0.873,3.438-1.311,5.491-1.311
						c1.823,0,3.451,0.367,4.883,1.102c1.431,0.736,2.539,1.801,3.325,3.193l-2.774,1.785c-0.634-0.963-1.419-1.684-2.355-2.166
						c-0.938-0.48-1.977-0.723-3.116-0.723c-1.317,0-2.502,0.293-3.554,0.875c-1.051,0.582-1.875,1.412-2.47,2.488
						c-0.596,1.078-0.893,2.313-0.893,3.705c0,1.42,0.297,2.668,0.893,3.744c0.595,1.076,1.419,1.906,2.47,2.488
						c1.052,0.584,2.236,0.875,3.554,0.875c1.14,0,2.179-0.242,3.116-0.723c0.937-0.48,1.722-1.203,2.355-2.166l2.774,1.748
						c-0.786,1.393-1.895,2.463-3.325,3.211c-1.432,0.748-3.06,1.121-4.883,1.121
						C1045.238,2071.91,1043.408,2071.467,1041.8,2070.58z"/>
					<path style="fill:#8282A8;" d="M1071.801,2070.504c-0.532,0.455-1.191,0.805-1.977,1.045s-1.596,0.361-2.432,0.361
						c-2.027,0-3.598-0.545-4.712-1.635c-1.115-1.088-1.672-2.646-1.672-4.674v-11.059h-3.42v-3.002h3.42v-4.406h3.647v4.406h5.776
						v3.002h-5.776v10.906c0,1.09,0.272,1.926,0.817,2.508c0.544,0.584,1.323,0.875,2.337,0.875c1.114,0,2.064-0.316,2.85-0.949
						L1071.801,2070.504z"/>
					<path style="fill:#8282A8;" d="M1093.65,2062.828h-16.34c0.228,1.773,1.007,3.199,2.337,4.275s2.983,1.615,4.959,1.615
						c2.406,0,4.345-0.811,5.813-2.434l2.015,2.357c-0.912,1.063-2.046,1.875-3.401,2.432s-2.869,0.836-4.541,0.836
						c-2.128,0-4.016-0.438-5.662-1.311c-1.646-0.875-2.92-2.096-3.818-3.668c-0.899-1.57-1.35-3.344-1.35-5.32
						c0-1.949,0.438-3.711,1.312-5.281s2.077-2.793,3.609-3.668c1.533-0.873,3.262-1.311,5.188-1.311
						c1.925,0,3.642,0.438,5.148,1.311c1.508,0.875,2.686,2.098,3.534,3.668s1.273,3.369,1.273,5.396
						C1093.727,2062.006,1093.701,2062.371,1093.65,2062.828z M1079.382,2056.025c-1.179,1.064-1.869,2.459-2.071,4.18h12.92
						c-0.203-1.695-0.893-3.084-2.071-4.16c-1.178-1.076-2.641-1.615-4.389-1.615S1080.56,2054.961,1079.382,2056.025z"/>
					<path style="fill:#8282A8;" d="M1110.104,2070.504c-0.532,0.455-1.191,0.805-1.977,1.045s-1.596,0.361-2.432,0.361
						c-2.027,0-3.598-0.545-4.712-1.635c-1.115-1.088-1.672-2.646-1.672-4.674v-11.059h-3.42v-3.002h3.42v-4.406h3.647v4.406h5.776
						v3.002h-5.776v10.906c0,1.09,0.272,1.926,0.817,2.508c0.544,0.584,1.323,0.875,2.337,0.875c1.114,0,2.064-0.316,2.85-0.949
						L1110.104,2070.504z"/>
					<path style="fill:#8282A8;" d="M1133.284,2051.541v20.141h-3.458v-3.039c-0.735,1.039-1.704,1.842-2.907,2.412
						c-1.204,0.57-2.515,0.855-3.934,0.855c-2.686,0-4.801-0.742-6.346-2.223c-1.546-1.482-2.318-3.668-2.318-6.555v-11.592h3.648
						v11.174c0,1.949,0.469,3.426,1.406,4.426c0.937,1.002,2.279,1.502,4.027,1.502c1.926,0,3.445-0.584,4.561-1.748
						c1.114-1.166,1.672-2.813,1.672-4.941v-10.412H1133.284z"/>
					<path style="fill:#8282A8;" d="M1146.545,2052.264c1.241-0.607,2.749-0.912,4.522-0.912v3.535
						c-0.203-0.025-0.481-0.039-0.836-0.039c-1.977,0-3.528,0.59-4.655,1.768s-1.69,2.855-1.69,5.035v10.031h-3.648v-20.141h3.496
						v3.383C1144.366,2053.76,1145.304,2052.871,1146.545,2052.264z"/>
					<path style="fill:#8282A8;" d="M1179.775,2053.404c1.481,1.367,2.223,3.407,2.223,6.117v12.16h-3.458v-2.66
						c-0.608,0.938-1.476,1.654-2.603,2.146c-1.128,0.494-2.465,0.742-4.01,0.742c-2.255,0-4.06-0.545-5.415-1.635
						c-1.355-1.088-2.032-2.52-2.032-4.293s0.646-3.199,1.938-4.275s3.344-1.615,6.156-1.615h5.775v-0.723
						c0-1.57-0.455-2.773-1.367-3.609s-2.256-1.254-4.028-1.254c-1.191,0-2.356,0.197-3.496,0.59s-2.103,0.918-2.888,1.576
						l-1.521-2.736c1.039-0.836,2.28-1.475,3.725-1.918c1.443-0.443,2.977-0.666,4.598-0.666
						C1176.158,2051.352,1178.293,2052.035,1179.775,2053.404z M1176.146,2068.166c1.013-0.619,1.748-1.5,2.203-2.641v-2.811h-5.623
						c-3.092,0-4.637,1.039-4.637,3.115c0,1.014,0.393,1.811,1.179,2.395c0.784,0.582,1.874,0.873,3.268,0.873
						C1173.929,2069.098,1175.133,2068.787,1176.146,2068.166z"/>
					<path style="fill:#8282A8;" d="M1207.875,2043.486v28.195h-3.496v-3.191c-0.811,1.115-1.837,1.963-3.078,2.545
						c-1.241,0.584-2.609,0.875-4.104,0.875c-1.951,0-3.699-0.432-5.244-1.293c-1.546-0.859-2.755-2.07-3.629-3.629
						c-0.874-1.557-1.312-3.35-1.312-5.377c0-2.025,0.438-3.813,1.312-5.357s2.083-2.748,3.629-3.609
						c1.545-0.861,3.293-1.293,5.244-1.293c1.443,0,2.773,0.273,3.989,0.816c1.217,0.547,2.229,1.35,3.04,2.414v-11.096H1207.875z
						 M1200.959,2067.824c1.038-0.594,1.849-1.43,2.432-2.508c0.583-1.076,0.874-2.311,0.874-3.705c0-1.393-0.291-2.627-0.874-3.705
						c-0.583-1.076-1.394-1.906-2.432-2.488c-1.039-0.582-2.191-0.875-3.458-0.875c-1.292,0-2.451,0.293-3.477,0.875
						c-1.026,0.582-1.838,1.412-2.433,2.488c-0.596,1.078-0.893,2.313-0.893,3.705c0,1.395,0.297,2.629,0.893,3.705
						c0.595,1.078,1.406,1.914,2.433,2.508c1.025,0.596,2.185,0.895,3.477,0.895
						C1198.768,2068.719,1199.92,2068.42,1200.959,2067.824z"/>
					<path style="fill:#8282A8;" d="M1214.848,2046.982c-0.469-0.457-0.703-1.014-0.703-1.673c0-0.657,0.234-1.222,0.703-1.69
						s1.058-0.703,1.768-0.703c0.709,0,1.298,0.223,1.767,0.664c0.469,0.445,0.703,0.996,0.703,1.654
						c0,0.684-0.234,1.26-0.703,1.729s-1.058,0.703-1.767,0.703C1215.905,2047.666,1215.316,2047.438,1214.848,2046.982z
						 M1214.791,2051.541h3.648v20.141h-3.648V2051.541z"/>
					<path style="fill:#8282A8;" d="M1241.314,2052.645c1.545,0.861,2.755,2.064,3.629,3.609s1.312,3.332,1.312,5.357
						c0,2.027-0.438,3.82-1.312,5.377c-0.874,1.559-2.084,2.77-3.629,3.629c-1.546,0.861-3.293,1.293-5.244,1.293
						c-1.443,0-2.768-0.279-3.971-0.836s-2.223-1.369-3.059-2.432v10.412h-3.648v-27.514h3.496v3.193
						c0.811-1.115,1.836-1.957,3.078-2.527c1.24-0.57,2.608-0.855,4.104-0.855
						C1238.021,2051.352,1239.769,2051.783,1241.314,2052.645z M1239.243,2067.824c1.026-0.594,1.837-1.43,2.433-2.508
						c0.595-1.076,0.893-2.311,0.893-3.705c0-1.393-0.298-2.627-0.893-3.705c-0.596-1.076-1.406-1.906-2.433-2.488
						c-1.025-0.582-2.185-0.875-3.477-0.875c-1.268,0-2.413,0.299-3.439,0.895c-1.025,0.596-1.837,1.424-2.432,2.488
						c-0.596,1.064-0.893,2.293-0.893,3.686c0,1.395,0.291,2.629,0.874,3.705c0.582,1.078,1.393,1.914,2.432,2.508
						c1.038,0.596,2.19,0.895,3.458,0.895C1237.059,2068.719,1238.218,2068.42,1239.243,2067.824z"/>
					<path style="fill:#8282A8;" d="M1251.365,2046.982c-0.469-0.457-0.703-1.014-0.703-1.673c0-0.657,0.234-1.222,0.703-1.69
						s1.058-0.703,1.768-0.703c0.709,0,1.298,0.223,1.767,0.664c0.469,0.445,0.703,0.996,0.703,1.654
						c0,0.684-0.234,1.26-0.703,1.729s-1.058,0.703-1.767,0.703C1252.423,2047.666,1251.834,2047.438,1251.365,2046.982z
						 M1251.309,2051.541h3.648v20.141h-3.648V2051.541z"/>
					<path style="fill:#8282A8;" d="M1262.937,2071.244c-1.521-0.441-2.712-1.006-3.572-1.689l1.52-2.889
						c0.887,0.633,1.963,1.141,3.23,1.52c1.267,0.381,2.546,0.57,3.838,0.57c3.192,0,4.788-0.912,4.788-2.736
						c0-0.607-0.216-1.088-0.646-1.443s-0.969-0.613-1.614-0.779c-0.646-0.164-1.564-0.348-2.755-0.551
						c-1.622-0.254-2.945-0.545-3.972-0.875c-1.025-0.328-1.906-0.885-2.641-1.672c-0.735-0.785-1.103-1.887-1.103-3.305
						c0-1.824,0.761-3.287,2.28-4.389c1.521-1.104,3.559-1.654,6.118-1.654c1.343,0,2.685,0.166,4.028,0.494
						c1.342,0.33,2.444,0.773,3.306,1.33l-1.558,2.889c-1.647-1.064-3.586-1.596-5.814-1.596c-1.546,0-2.724,0.252-3.534,0.76
						c-0.811,0.506-1.216,1.178-1.216,2.014c0,0.658,0.229,1.178,0.684,1.559c0.456,0.379,1.02,0.658,1.691,0.836
						c0.671,0.177,1.615,0.379,2.831,0.607c1.621,0.279,2.932,0.576,3.933,0.893s1.855,0.855,2.565,1.615
						c0.709,0.76,1.063,1.824,1.063,3.191c0,1.824-0.778,3.275-2.337,4.352c-1.558,1.076-3.68,1.615-6.364,1.615
						C1266.039,2071.91,1264.456,2071.688,1262.937,2071.244z"/>
					<path style="fill:#8282A8;" d="M1284.235,2070.58c-1.609-0.887-2.869-2.109-3.781-3.668c-0.912-1.557-1.368-3.324-1.368-5.301
						c0-1.975,0.456-3.742,1.368-5.302c0.912-1.558,2.172-2.772,3.781-3.647c1.608-0.873,3.438-1.311,5.491-1.311
						c1.823,0,3.451,0.367,4.883,1.102c1.431,0.736,2.539,1.801,3.325,3.193l-2.774,1.785c-0.634-0.963-1.419-1.684-2.355-2.166
						c-0.938-0.48-1.977-0.723-3.116-0.723c-1.317,0-2.502,0.293-3.554,0.875c-1.051,0.582-1.875,1.412-2.47,2.488
						c-0.596,1.078-0.893,2.313-0.893,3.705c0,1.42,0.297,2.668,0.893,3.744c0.595,1.076,1.419,1.906,2.47,2.488
						c1.052,0.584,2.236,0.875,3.554,0.875c1.14,0,2.179-0.242,3.116-0.723c0.937-0.48,1.722-1.203,2.355-2.166l2.774,1.748
						c-0.786,1.393-1.895,2.463-3.325,3.211c-1.432,0.748-3.06,1.121-4.883,1.121
						C1287.674,2071.91,1285.844,2071.467,1284.235,2070.58z"/>
					<path style="fill:#8282A8;" d="M1302.703,2046.982c-0.469-0.457-0.703-1.014-0.703-1.673c0-0.657,0.234-1.222,0.703-1.69
						s1.058-0.703,1.768-0.703c0.709,0,1.298,0.223,1.767,0.664c0.469,0.445,0.703,0.996,0.703,1.654
						c0,0.684-0.234,1.26-0.703,1.729s-1.058,0.703-1.767,0.703C1303.761,2047.666,1303.172,2047.438,1302.703,2046.982z
						 M1302.646,2051.541h3.648v20.141h-3.648V2051.541z"/>
					<path style="fill:#8282A8;" d="M1330.101,2053.574c1.508,1.482,2.262,3.655,2.262,6.518v11.59h-3.648v-11.172
						c0-1.951-0.469-3.42-1.406-4.408s-2.279-1.482-4.027-1.482c-1.977,0-3.534,0.578-4.674,1.73
						c-1.141,1.152-1.71,2.805-1.71,4.959v10.373h-3.648v-20.141h3.496v3.041c0.734-1.039,1.729-1.836,2.982-2.395
						c1.255-0.557,2.68-0.836,4.275-0.836C1326.561,2051.352,1328.594,2052.094,1330.101,2053.574z"/>
					<path style="fill:#8282A8;" d="M1358.506,2051.541v17.404c0,3.521-0.874,6.125-2.622,7.811
						c-1.748,1.684-4.357,2.525-7.827,2.525c-1.9,0-3.712-0.26-5.435-0.779s-3.116-1.26-4.18-2.223l1.748-2.811
						c0.937,0.811,2.096,1.449,3.477,1.918s2.806,0.703,4.275,0.703c2.355,0,4.098-0.557,5.225-1.672s1.691-2.813,1.691-5.092
						v-1.596c-0.861,1.039-1.919,1.818-3.173,2.336c-1.254,0.52-2.616,0.779-4.085,0.779c-1.926,0-3.667-0.412-5.226-1.234
						c-1.558-0.824-2.78-1.977-3.667-3.459s-1.33-3.172-1.33-5.072s0.443-3.592,1.33-5.072c0.887-1.482,2.109-2.629,3.667-3.439
						c1.559-0.811,3.3-1.217,5.226-1.217c1.52,0,2.932,0.279,4.236,0.836c1.305,0.559,2.375,1.381,3.211,2.471v-3.117H1358.506z
						 M1351.571,2066.818c1.051-0.557,1.874-1.336,2.47-2.338c0.595-1,0.894-2.133,0.894-3.4c0-1.951-0.646-3.527-1.938-4.73
						s-2.951-1.807-4.978-1.807c-2.053,0-3.725,0.604-5.017,1.807s-1.938,2.779-1.938,4.73c0,1.268,0.297,2.4,0.893,3.4
						c0.595,1.002,1.419,1.781,2.47,2.338c1.052,0.557,2.248,0.836,3.592,0.836
						C1349.335,2067.654,1350.52,2067.375,1351.571,2066.818z"/>
					<path style="fill:#8282A8;" d="M650.084,2117.828h-16.34c0.228,1.773,1.007,3.199,2.337,4.275
						c1.33,1.076,2.983,1.615,4.959,1.615c2.406,0,4.344-0.811,5.814-2.434l2.014,2.357c-0.912,1.063-2.046,1.875-3.401,2.432
						c-1.355,0.557-2.869,0.836-4.541,0.836c-2.128,0-4.015-0.438-5.662-1.311c-1.648-0.875-2.921-2.096-3.819-3.668
						c-0.899-1.57-1.349-3.344-1.349-5.32c0-1.949,0.437-3.711,1.311-5.281c0.874-1.57,2.077-2.793,3.61-3.668
						c1.532-0.873,3.261-1.311,5.187-1.311c1.925,0,3.642,0.438,5.149,1.311c1.507,0.875,2.686,2.098,3.534,3.668
						c0.848,1.57,1.273,3.369,1.273,5.396C650.161,2117.006,650.135,2117.371,650.084,2117.828z M635.815,2111.025
						c-1.178,1.064-1.869,2.459-2.071,4.18h12.92c-0.204-1.695-0.893-3.084-2.072-4.16c-1.178-1.076-2.641-1.615-4.389-1.615
						C638.456,2109.43,636.994,2109.961,635.815,2111.025z"/>
					<path style="fill:#8282A8;" d="M655.214,2098.486h3.648v28.195h-3.648V2098.486z"/>
					<path style="fill:#8282A8;" d="M665.873,2101.982c-0.469-0.457-0.703-1.014-0.703-1.672s0.234-1.223,0.703-1.691
						c0.468-0.469,1.058-0.703,1.768-0.703c0.708,0,1.297,0.223,1.766,0.664c0.469,0.445,0.703,0.996,0.703,1.654
						c0,0.684-0.234,1.26-0.703,1.729c-0.469,0.469-1.058,0.703-1.766,0.703C666.931,2102.666,666.341,2102.438,665.873,2101.982z
						 M665.816,2106.541h3.648v20.141h-3.648V2106.541z"/>
					<path style="fill:#8282A8;" d="M687.742,2125.504c-0.533,0.455-1.192,0.805-1.977,1.045c-0.786,0.24-1.596,0.361-2.432,0.361
						c-2.027,0-3.598-0.545-4.712-1.635c-1.115-1.088-1.671-2.646-1.671-4.674v-11.059h-3.421v-3.002h3.421v-4.406h3.648v4.406
						h5.776v3.002h-5.776v10.906c0,1.09,0.272,1.926,0.817,2.508c0.544,0.584,1.323,0.875,2.337,0.875
						c1.115,0,2.064-0.316,2.85-0.949L687.742,2125.504z"/>
					<path style="fill:#8282A8;" d="M695.208,2122.445c0.468,0.494,0.703,1.107,0.703,1.842c0,0.381-0.044,0.748-0.133,1.104
						c-0.088,0.354-0.26,0.898-0.513,1.633l-1.786,5.283h-2.394l1.406-5.662c-0.482-0.178-0.868-0.477-1.159-0.895
						c-0.292-0.418-0.437-0.904-0.437-1.463c0-0.76,0.241-1.379,0.722-1.861c0.481-0.48,1.089-0.723,1.825-0.723
						C694.15,2121.703,694.739,2121.951,695.208,2122.445z"/>
					<path style="fill:#8282A8;" d="M712.402,2126.244c-1.52-0.441-2.711-1.006-3.572-1.689l1.521-2.889
						c0.886,0.633,1.962,1.141,3.229,1.52c1.267,0.381,2.546,0.57,3.838,0.57c3.192,0,4.788-0.912,4.788-2.736
						c0-0.607-0.216-1.088-0.646-1.443c-0.432-0.355-0.97-0.613-1.616-0.779c-0.646-0.164-1.564-0.348-2.755-0.551
						c-1.621-0.254-2.945-0.545-3.971-0.875c-1.025-0.328-1.906-0.885-2.641-1.672c-0.735-0.785-1.102-1.887-1.102-3.305
						c0-1.824,0.759-3.287,2.279-4.389c1.52-1.104,3.559-1.654,6.118-1.654c1.342,0,2.686,0.166,4.028,0.494
						c1.343,0.33,2.445,0.773,3.306,1.33l-1.558,2.889c-1.647-1.064-3.584-1.596-5.814-1.596c-1.545,0-2.724,0.252-3.534,0.76
						c-0.811,0.506-1.216,1.178-1.216,2.014c0,0.658,0.228,1.178,0.684,1.559c0.457,0.379,1.02,0.658,1.691,0.836
						c0.671,0.176,1.615,0.379,2.831,0.607c1.621,0.279,2.933,0.576,3.934,0.893c1,0.316,1.856,0.855,2.564,1.615
						c0.709,0.76,1.064,1.824,1.064,3.191c0,1.824-0.779,3.275-2.336,4.352c-1.559,1.076-3.681,1.615-6.366,1.615
						C715.505,2126.91,713.922,2126.688,712.402,2126.244z"/>
					<path style="fill:#8282A8;" d="M748.54,2117.828h-16.34c0.228,1.773,1.008,3.199,2.337,4.275
						c1.33,1.076,2.983,1.615,4.959,1.615c2.406,0,4.344-0.811,5.814-2.434l2.014,2.357c-0.912,1.063-2.046,1.875-3.401,2.432
						c-1.356,0.557-2.869,0.836-4.542,0.836c-2.128,0-4.015-0.438-5.661-1.311c-1.647-0.875-2.92-2.096-3.819-3.668
						c-0.899-1.57-1.349-3.344-1.349-5.32c0-1.949,0.437-3.711,1.311-5.281c0.874-1.57,2.077-2.793,3.61-3.668
						c1.532-0.873,3.261-1.311,5.186-1.311c1.925,0,3.642,0.438,5.149,1.311c1.507,0.875,2.685,2.098,3.534,3.668
						c0.848,1.57,1.272,3.369,1.272,5.396C748.615,2117.006,748.59,2117.371,748.54,2117.828z M734.271,2111.025
						c-1.178,1.064-1.869,2.459-2.071,4.18h12.92c-0.204-1.695-0.893-3.084-2.071-4.16c-1.178-1.076-2.641-1.615-4.389-1.615
						C736.912,2109.43,735.449,2109.961,734.271,2111.025z"/>
					<path style="fill:#8282A8;" d="M772.669,2098.486v28.195h-3.496v-3.191c-0.811,1.115-1.836,1.963-3.078,2.545
						c-1.241,0.584-2.609,0.875-4.104,0.875c-1.951,0-3.699-0.432-5.244-1.293c-1.545-0.859-2.755-2.07-3.629-3.629
						c-0.874-1.557-1.311-3.35-1.311-5.377c0-2.025,0.437-3.813,1.311-5.357c0.873-1.545,2.083-2.748,3.629-3.609
						c1.544-0.861,3.292-1.293,5.244-1.293c1.444,0,2.774,0.273,3.99,0.816c1.216,0.547,2.229,1.35,3.04,2.414v-11.096H772.669z
						 M765.753,2122.824c1.039-0.594,1.849-1.43,2.432-2.508c0.583-1.076,0.874-2.311,0.874-3.705c0-1.393-0.291-2.627-0.874-3.705
						c-0.583-1.076-1.394-1.906-2.432-2.488c-1.039-0.582-2.191-0.875-3.458-0.875c-1.292,0-2.451,0.293-3.477,0.875
						c-1.026,0.582-1.837,1.412-2.432,2.488c-0.595,1.078-0.892,2.313-0.892,3.705c0,1.395,0.297,2.629,0.892,3.705
						c0.595,1.078,1.406,1.914,2.432,2.508c1.026,0.596,2.185,0.895,3.477,0.895C763.562,2123.719,764.714,2123.42,765.753,2122.824
						z"/>
					<path style="fill:#8282A8;" d="M807.933,2117.828h-16.34c0.228,1.773,1.007,3.199,2.337,4.275
						c1.33,1.076,2.983,1.615,4.959,1.615c2.406,0,4.345-0.811,5.814-2.434l2.014,2.357c-0.912,1.063-2.046,1.875-3.401,2.432
						c-1.355,0.557-2.869,0.836-4.541,0.836c-2.128,0-4.015-0.438-5.662-1.311c-1.648-0.875-2.92-2.096-3.819-3.668
						c-0.9-1.57-1.349-3.344-1.349-5.32c0-1.949,0.437-3.711,1.311-5.281c0.873-1.57,2.076-2.793,3.61-3.668
						c1.532-0.873,3.261-1.311,5.186-1.311c1.925,0,3.642,0.438,5.15,1.311c1.506,0.875,2.685,2.098,3.534,3.668
						c0.848,1.57,1.273,3.369,1.273,5.396C808.009,2117.006,807.982,2117.371,807.933,2117.828z M793.664,2111.025
						c-1.178,1.064-1.869,2.459-2.071,4.18h12.92c-0.203-1.695-0.893-3.084-2.071-4.16c-1.178-1.076-2.641-1.615-4.389-1.615
						C796.305,2109.43,794.842,2109.961,793.664,2111.025z"/>
					<path style="fill:#8282A8;" d="M813.12,2101.982c-0.469-0.457-0.704-1.014-0.704-1.672s0.234-1.223,0.704-1.691
						c0.468-0.469,1.057-0.703,1.767-0.703c0.708,0,1.298,0.223,1.767,0.664c0.469,0.445,0.703,0.996,0.703,1.654
						c0,0.684-0.234,1.26-0.703,1.729s-1.058,0.703-1.767,0.703C814.177,2102.666,813.588,2102.438,813.12,2101.982z
						 M813.063,2106.541h3.648v20.141h-3.648V2106.541z"/>
					<path style="fill:#8282A8;" d="M842.436,2106.541v20.141h-3.458v-3.039c-0.735,1.039-1.704,1.842-2.907,2.412
						c-1.204,0.57-2.515,0.855-3.933,0.855c-2.686,0-4.802-0.742-6.347-2.223c-1.545-1.482-2.317-3.668-2.317-6.555v-11.592h3.647
						v11.174c0,1.949,0.468,3.426,1.406,4.426c0.937,1.002,2.281,1.502,4.029,1.502c1.925,0,3.444-0.584,4.56-1.748
						c1.114-1.166,1.672-2.813,1.672-4.941v-10.412H842.436z"/>
					<path style="fill:#8282A8;" d="M850.416,2126.244c-1.52-0.441-2.711-1.006-3.572-1.689l1.521-2.889
						c0.886,0.633,1.962,1.141,3.229,1.52c1.267,0.381,2.546,0.57,3.838,0.57c3.192,0,4.788-0.912,4.788-2.736
						c0-0.607-0.216-1.088-0.646-1.443c-0.432-0.355-0.97-0.613-1.615-0.779c-0.646-0.164-1.565-0.348-2.755-0.551
						c-1.622-0.254-2.945-0.545-3.971-0.875c-1.025-0.328-1.906-0.885-2.641-1.672c-0.735-0.785-1.102-1.887-1.102-3.305
						c0-1.824,0.759-3.287,2.279-4.389c1.52-1.104,3.559-1.654,6.118-1.654c1.342,0,2.685,0.166,4.028,0.494
						c1.343,0.33,2.445,0.773,3.306,1.33l-1.558,2.889c-1.647-1.064-3.585-1.596-5.814-1.596c-1.545,0-2.724,0.252-3.534,0.76
						c-0.811,0.506-1.216,1.178-1.216,2.014c0,0.658,0.228,1.178,0.684,1.559c0.456,0.379,1.02,0.658,1.691,0.836
						c0.671,0.176,1.615,0.379,2.831,0.607c1.621,0.279,2.932,0.576,3.933,0.893c1.001,0.316,1.855,0.855,2.565,1.615
						c0.709,0.76,1.063,1.824,1.063,3.191c0,1.824-0.778,3.275-2.336,4.352s-3.68,1.615-6.365,1.615
						C853.519,2126.91,851.936,2126.688,850.416,2126.244z"/>
					<path style="fill:#8282A8;" d="M899.644,2108.557c1.483,1.469,2.224,3.646,2.224,6.535v11.59h-3.648v-11.172
						c0-1.951-0.45-3.42-1.349-4.408c-0.899-0.988-2.185-1.482-3.857-1.482c-1.85,0-3.319,0.578-4.408,1.73
						c-1.09,1.152-1.634,2.805-1.634,4.959v10.373h-3.648v-11.172c0-1.951-0.45-3.42-1.349-4.408
						c-0.9-0.988-2.185-1.482-3.857-1.482c-1.85,0-3.319,0.578-4.408,1.73c-1.09,1.152-1.634,2.805-1.634,4.959v10.373h-3.648
						v-20.141h3.497v3.002c0.734-1.037,1.696-1.828,2.887-2.375c1.191-0.543,2.546-0.816,4.066-0.816
						c1.571,0,2.963,0.318,4.18,0.951c1.216,0.633,2.152,1.557,2.811,2.773c0.76-1.166,1.817-2.078,3.174-2.736
						c1.354-0.658,2.881-0.988,4.578-0.988C896.154,2106.352,898.162,2107.088,899.644,2108.557z"/>
					<path style="fill:#8282A8;" d="M911.937,2125.58c-1.596-0.887-2.844-2.109-3.743-3.668c-0.899-1.557-1.349-3.324-1.349-5.301
						c0-1.975,0.449-3.742,1.349-5.301c0.899-1.559,2.147-2.773,3.743-3.648c1.596-0.873,3.395-1.311,5.395-1.311
						c2.002,0,3.794,0.438,5.378,1.311c1.583,0.875,2.825,2.09,3.724,3.648c0.898,1.559,1.349,3.326,1.349,5.301
						c0,1.977-0.451,3.744-1.349,5.301c-0.899,1.559-2.142,2.781-3.724,3.668c-1.583,0.887-3.376,1.33-5.378,1.33
						C915.331,2126.91,913.533,2126.467,911.937,2125.58z M920.81,2122.824c1.026-0.594,1.83-1.43,2.413-2.508
						c0.582-1.076,0.874-2.311,0.874-3.705c0-1.393-0.292-2.627-0.874-3.705c-0.583-1.076-1.387-1.906-2.413-2.488
						c-1.026-0.582-2.186-0.875-3.478-0.875c-1.292,0-2.451,0.293-3.476,0.875c-1.026,0.582-1.837,1.412-2.432,2.488
						c-0.596,1.078-0.893,2.313-0.893,3.705c0,1.395,0.297,2.629,0.893,3.705c0.595,1.078,1.406,1.914,2.432,2.508
						c1.025,0.596,2.184,0.895,3.476,0.895C918.624,2123.719,919.783,2123.42,920.81,2122.824z"/>
					<path style="fill:#8282A8;" d="M951.836,2098.486v28.195h-3.496v-3.191c-0.811,1.115-1.837,1.963-3.078,2.545
						c-1.241,0.584-2.61,0.875-4.104,0.875c-1.951,0-3.699-0.432-5.243-1.293c-1.546-0.859-2.756-2.07-3.63-3.629
						c-0.874-1.557-1.311-3.35-1.311-5.377c0-2.025,0.437-3.813,1.311-5.357c0.874-1.545,2.083-2.748,3.63-3.609
						c1.544-0.861,3.293-1.293,5.243-1.293c1.444,0,2.774,0.273,3.99,0.816c1.216,0.547,2.229,1.35,3.04,2.414v-11.096H951.836z
						 M944.92,2122.824c1.039-0.594,1.849-1.43,2.432-2.508c0.583-1.076,0.874-2.311,0.874-3.705c0-1.393-0.292-2.627-0.874-3.705
						c-0.583-1.076-1.393-1.906-2.432-2.488c-1.039-0.582-2.191-0.875-3.458-0.875c-1.292,0-2.452,0.293-3.477,0.875
						c-1.026,0.582-1.837,1.412-2.432,2.488c-0.595,1.078-0.893,2.313-0.893,3.705c0,1.395,0.297,2.629,0.893,3.705
						c0.595,1.078,1.406,1.914,2.432,2.508c1.025,0.596,2.185,0.895,3.477,0.895C942.729,2123.719,943.881,2123.42,944.92,2122.824z
						"/>
					<path style="fill:#8282A8;" d="M980.298,2125.504c-0.532,0.455-1.191,0.805-1.976,1.045c-0.786,0.24-1.597,0.361-2.433,0.361
						c-2.027,0-3.598-0.545-4.712-1.635c-1.115-1.088-1.672-2.646-1.672-4.674v-11.059h-3.42v-3.002h3.42v-4.406h3.648v4.406h5.776
						v3.002h-5.776v10.906c0,1.09,0.272,1.926,0.817,2.508c0.544,0.584,1.323,0.875,2.337,0.875c1.114,0,2.064-0.316,2.851-0.949
						L980.298,2125.504z"/>
					<path style="fill:#8282A8;" d="M1002.146,2117.828h-16.339c0.228,1.773,1.006,3.199,2.336,4.275
						c1.331,1.076,2.983,1.615,4.959,1.615c2.406,0,4.344-0.811,5.814-2.434l2.014,2.357c-0.912,1.063-2.046,1.875-3.401,2.432
						c-1.355,0.557-2.869,0.836-4.541,0.836c-2.128,0-4.015-0.438-5.662-1.311c-1.648-0.875-2.921-2.096-3.819-3.668
						c-0.899-1.57-1.349-3.344-1.349-5.32c0-1.949,0.437-3.711,1.311-5.281c0.874-1.57,2.077-2.793,3.61-3.668
						c1.532-0.873,3.261-1.311,5.188-1.311c1.924,0,3.641,0.438,5.148,1.311c1.507,0.875,2.686,2.098,3.534,3.668
						c0.848,1.57,1.273,3.369,1.273,5.396C1002.223,2117.006,1002.197,2117.371,1002.146,2117.828z M987.878,2111.025
						c-1.178,1.064-1.869,2.459-2.07,4.18h12.92c-0.204-1.695-0.893-3.084-2.071-4.16c-1.179-1.076-2.641-1.615-4.389-1.615
						C990.519,2109.43,989.057,2109.961,987.878,2111.025z"/>
					<path style="fill:#8282A8;" d="M1038.493,2108.557c1.482,1.469,2.224,3.646,2.224,6.535v11.59h-3.648v-11.172
						c0-1.951-0.45-3.42-1.349-4.408c-0.899-0.988-2.186-1.482-3.857-1.482c-1.85,0-3.319,0.578-4.408,1.73
						s-1.634,2.805-1.634,4.959v10.373h-3.648v-11.172c0-1.951-0.449-3.42-1.349-4.408c-0.899-0.988-2.185-1.482-3.856-1.482
						c-1.85,0-3.319,0.578-4.408,1.73c-1.09,1.152-1.634,2.805-1.634,4.959v10.373h-3.648v-20.141h3.496v3.002
						c0.734-1.037,1.697-1.828,2.888-2.375c1.19-0.543,2.546-0.816,4.066-0.816c1.57,0,2.964,0.318,4.18,0.951
						c1.216,0.633,2.153,1.557,2.812,2.773c0.76-1.166,1.817-2.078,3.173-2.736c1.354-0.658,2.881-0.988,4.579-0.988
						C1035.003,2106.352,1037.012,2107.088,1038.493,2108.557z"/>
					<path style="fill:#8282A8;" d="M1063.364,2107.645c1.545,0.861,2.755,2.064,3.629,3.609s1.312,3.332,1.312,5.357
						c0,2.027-0.438,3.82-1.312,5.377c-0.874,1.559-2.084,2.77-3.629,3.629c-1.546,0.861-3.293,1.293-5.244,1.293
						c-1.443,0-2.768-0.279-3.971-0.836s-2.223-1.369-3.059-2.432v10.412h-3.648v-27.514h3.496v3.193
						c0.811-1.115,1.836-1.957,3.078-2.527c1.24-0.57,2.608-0.855,4.104-0.855
						C1060.071,2106.352,1061.818,2106.783,1063.364,2107.645z M1061.293,2122.824c1.026-0.594,1.837-1.43,2.433-2.508
						c0.595-1.076,0.893-2.311,0.893-3.705c0-1.393-0.298-2.627-0.893-3.705c-0.596-1.076-1.406-1.906-2.433-2.488
						c-1.025-0.582-2.185-0.875-3.477-0.875c-1.268,0-2.413,0.299-3.439,0.895c-1.025,0.596-1.837,1.424-2.432,2.488
						c-0.596,1.064-0.893,2.293-0.893,3.686c0,1.395,0.291,2.629,0.874,3.705c0.582,1.078,1.393,1.914,2.432,2.508
						c1.038,0.596,2.19,0.895,3.458,0.895C1059.108,2123.719,1060.268,2123.42,1061.293,2122.824z"/>
					<path style="fill:#8282A8;" d="M1076.589,2125.58c-1.597-0.887-2.845-2.109-3.743-3.668c-0.899-1.557-1.35-3.324-1.35-5.301
						c0-1.975,0.45-3.742,1.35-5.301c0.898-1.559,2.146-2.773,3.743-3.648c1.596-0.873,3.394-1.311,5.396-1.311
						c2.001,0,3.794,0.438,5.377,1.311c1.583,0.875,2.824,2.09,3.724,3.648s1.35,3.326,1.35,5.301c0,1.977-0.45,3.744-1.35,5.301
						c-0.899,1.559-2.141,2.781-3.724,3.668s-3.376,1.33-5.377,1.33C1079.982,2126.91,1078.185,2126.467,1076.589,2125.58z
						 M1085.461,2122.824c1.026-0.594,1.83-1.43,2.413-2.508c0.583-1.076,0.874-2.311,0.874-3.705c0-1.393-0.291-2.627-0.874-3.705
						c-0.583-1.076-1.387-1.906-2.413-2.488c-1.025-0.582-2.185-0.875-3.477-0.875s-2.451,0.293-3.477,0.875
						c-1.026,0.582-1.838,1.412-2.433,2.488c-0.596,1.078-0.893,2.313-0.893,3.705c0,1.395,0.297,2.629,0.893,3.705
						c0.595,1.078,1.406,1.914,2.433,2.508c1.025,0.596,2.185,0.895,3.477,0.895S1084.436,2123.42,1085.461,2122.824z"/>
					<path style="fill:#8282A8;" d="M1103.796,2107.264c1.241-0.607,2.749-0.912,4.522-0.912v3.535
						c-0.203-0.025-0.481-0.039-0.836-0.039c-1.977,0-3.528,0.59-4.655,1.768s-1.69,2.855-1.69,5.035v10.031h-3.648v-20.141h3.496
						v3.383C1101.617,2108.76,1102.555,2107.871,1103.796,2107.264z"/>
					<path style="fill:#8282A8;" d="M1123.346,2101.982c-0.469-0.457-0.703-1.014-0.703-1.672s0.234-1.223,0.703-1.691
						s1.058-0.703,1.768-0.703c0.709,0,1.298,0.223,1.767,0.664c0.469,0.445,0.703,0.996,0.703,1.654
						c0,0.684-0.234,1.26-0.703,1.729s-1.058,0.703-1.767,0.703C1124.403,2102.666,1123.814,2102.438,1123.346,2101.982z
						 M1123.289,2106.541h3.648v20.141h-3.648V2106.541z"/>
					<path style="fill:#8282A8;" d="M1150.743,2108.574c1.508,1.482,2.262,3.654,2.262,6.518v11.59h-3.648v-11.172
						c0-1.951-0.469-3.42-1.406-4.408s-2.279-1.482-4.027-1.482c-1.977,0-3.534,0.578-4.674,1.73
						c-1.141,1.152-1.71,2.805-1.71,4.959v10.373h-3.648v-20.141h3.496v3.041c0.734-1.039,1.729-1.836,2.982-2.395
						c1.255-0.557,2.68-0.836,4.275-0.836C1147.203,2106.352,1149.236,2107.094,1150.743,2108.574z"/>
					<path style="fill:#8282A8;" d="M1163.17,2125.58c-1.609-0.887-2.869-2.109-3.781-3.668c-0.912-1.557-1.368-3.324-1.368-5.301
						c0-1.975,0.456-3.742,1.368-5.301s2.172-2.773,3.781-3.648c1.608-0.873,3.438-1.311,5.491-1.311
						c1.823,0,3.451,0.367,4.883,1.102c1.431,0.736,2.539,1.801,3.325,3.193l-2.774,1.785c-0.634-0.963-1.419-1.684-2.355-2.166
						c-0.938-0.48-1.977-0.723-3.116-0.723c-1.317,0-2.502,0.293-3.554,0.875c-1.051,0.582-1.875,1.412-2.47,2.488
						c-0.596,1.078-0.893,2.313-0.893,3.705c0,1.42,0.297,2.668,0.893,3.744c0.595,1.076,1.419,1.906,2.47,2.488
						c1.052,0.584,2.236,0.875,3.554,0.875c1.14,0,2.179-0.242,3.116-0.723c0.937-0.48,1.722-1.203,2.355-2.166l2.774,1.748
						c-0.786,1.393-1.895,2.463-3.325,3.211c-1.432,0.748-3.06,1.121-4.883,1.121
						C1166.608,2126.91,1164.778,2126.467,1163.17,2125.58z"/>
					<path style="fill:#8282A8;" d="M1181.638,2101.982c-0.469-0.457-0.703-1.014-0.703-1.672s0.234-1.223,0.703-1.691
						s1.058-0.703,1.768-0.703c0.709,0,1.298,0.223,1.767,0.664c0.469,0.445,0.703,0.996,0.703,1.654
						c0,0.684-0.234,1.26-0.703,1.729s-1.058,0.703-1.767,0.703C1182.695,2102.666,1182.106,2102.438,1181.638,2101.982z
						 M1181.581,2106.541h3.648v20.141h-3.648V2106.541z"/>
					<path style="fill:#8282A8;" d="M1211.183,2098.486v28.195h-3.496v-3.191c-0.811,1.115-1.837,1.963-3.078,2.545
						c-1.241,0.584-2.609,0.875-4.104,0.875c-1.951,0-3.699-0.432-5.244-1.293c-1.546-0.859-2.755-2.07-3.629-3.629
						c-0.874-1.557-1.312-3.35-1.312-5.377c0-2.025,0.438-3.813,1.312-5.357s2.083-2.748,3.629-3.609
						c1.545-0.861,3.293-1.293,5.244-1.293c1.443,0,2.773,0.273,3.989,0.816c1.217,0.547,2.229,1.35,3.04,2.414v-11.096H1211.183z
						 M1204.267,2122.824c1.038-0.594,1.849-1.43,2.432-2.508c0.583-1.076,0.874-2.311,0.874-3.705c0-1.393-0.291-2.627-0.874-3.705
						c-0.583-1.076-1.394-1.906-2.432-2.488c-1.039-0.582-2.191-0.875-3.458-0.875c-1.292,0-2.451,0.293-3.477,0.875
						c-1.026,0.582-1.838,1.412-2.433,2.488c-0.596,1.078-0.893,2.313-0.893,3.705c0,1.395,0.297,2.629,0.893,3.705
						c0.595,1.078,1.406,1.914,2.433,2.508c1.025,0.596,2.185,0.895,3.477,0.895
						C1202.075,2123.719,1203.228,2123.42,1204.267,2122.824z"/>
					<path style="fill:#8282A8;" d="M1218.155,2101.982c-0.469-0.457-0.703-1.014-0.703-1.672s0.234-1.223,0.703-1.691
						s1.058-0.703,1.768-0.703c0.709,0,1.298,0.223,1.767,0.664c0.469,0.445,0.703,0.996,0.703,1.654
						c0,0.684-0.234,1.26-0.703,1.729s-1.058,0.703-1.767,0.703C1219.213,2102.666,1218.624,2102.438,1218.155,2101.982z
						 M1218.099,2106.541h3.648v20.141h-3.648V2106.541z"/>
					<path style="fill:#8282A8;" d="M1247.7,2098.486v28.195h-3.496v-3.191c-0.811,1.115-1.837,1.963-3.078,2.545
						c-1.241,0.584-2.609,0.875-4.104,0.875c-1.951,0-3.699-0.432-5.244-1.293c-1.546-0.859-2.755-2.07-3.629-3.629
						c-0.874-1.557-1.312-3.35-1.312-5.377c0-2.025,0.438-3.813,1.312-5.357s2.083-2.748,3.629-3.609
						c1.545-0.861,3.293-1.293,5.244-1.293c1.443,0,2.773,0.273,3.989,0.816c1.217,0.547,2.229,1.35,3.04,2.414v-11.096H1247.7z
						 M1240.784,2122.824c1.038-0.594,1.849-1.43,2.432-2.508c0.583-1.076,0.874-2.311,0.874-3.705c0-1.393-0.291-2.627-0.874-3.705
						c-0.583-1.076-1.394-1.906-2.432-2.488c-1.039-0.582-2.191-0.875-3.458-0.875c-1.292,0-2.451,0.293-3.477,0.875
						c-1.026,0.582-1.838,1.412-2.433,2.488c-0.596,1.078-0.893,2.313-0.893,3.705c0,1.395,0.297,2.629,0.893,3.705
						c0.595,1.078,1.406,1.914,2.433,2.508c1.025,0.596,2.185,0.895,3.477,0.895
						C1238.593,2123.719,1239.745,2123.42,1240.784,2122.824z"/>
					<path style="fill:#8282A8;" d="M1273.389,2106.541v20.141h-3.458v-3.039c-0.735,1.039-1.704,1.842-2.907,2.412
						c-1.204,0.57-2.515,0.855-3.934,0.855c-2.686,0-4.801-0.742-6.346-2.223c-1.546-1.482-2.318-3.668-2.318-6.555v-11.592h3.648
						v11.174c0,1.949,0.469,3.426,1.406,4.426c0.937,1.002,2.279,1.502,4.027,1.502c1.926,0,3.445-0.584,4.561-1.748
						c1.114-1.166,1.672-2.813,1.672-4.941v-10.412H1273.389z"/>
					<path style="fill:#8282A8;" d="M1297.194,2108.574c1.508,1.482,2.262,3.654,2.262,6.518v11.59h-3.648v-11.172
						c0-1.951-0.469-3.42-1.406-4.408s-2.279-1.482-4.027-1.482c-1.977,0-3.534,0.578-4.674,1.73
						c-1.141,1.152-1.71,2.805-1.71,4.959v10.373h-3.648v-20.141h3.496v3.041c0.734-1.039,1.729-1.836,2.982-2.395
						c1.255-0.557,2.68-0.836,4.275-0.836C1293.654,2106.352,1295.688,2107.094,1297.194,2108.574z"/>
					<path style="fill:#8282A8;" d="M1317.544,2125.504c-0.532,0.455-1.191,0.805-1.977,1.045s-1.596,0.361-2.432,0.361
						c-2.027,0-3.598-0.545-4.712-1.635c-1.115-1.088-1.672-2.646-1.672-4.674v-11.059h-3.42v-3.002h3.42v-4.406h3.647v4.406h5.776
						v3.002h-5.776v10.906c0,1.09,0.272,1.926,0.817,2.508c0.544,0.584,1.323,0.875,2.337,0.875c1.114,0,2.064-0.316,2.85-0.949
						L1317.544,2125.504z"/>
					<path style="fill:#8282A8;" d="M1350.945,2106.541v20.141h-3.458v-3.039c-0.735,1.039-1.704,1.842-2.907,2.412
						c-1.204,0.57-2.515,0.855-3.934,0.855c-2.686,0-4.801-0.742-6.346-2.223c-1.546-1.482-2.318-3.668-2.318-6.555v-11.592h3.648
						v11.174c0,1.949,0.469,3.426,1.406,4.426c0.937,1.002,2.279,1.502,4.027,1.502c1.926,0,3.445-0.584,4.561-1.748
						c1.114-1.166,1.672-2.813,1.672-4.941v-10.412H1350.945z"/>
					<path style="fill:#8282A8;" d="M1369.223,2125.504c-0.532,0.455-1.191,0.805-1.977,1.045s-1.596,0.361-2.432,0.361
						c-2.027,0-3.598-0.545-4.712-1.635c-1.115-1.088-1.672-2.646-1.672-4.674v-11.059h-3.42v-3.002h3.42v-4.406h3.647v4.406h5.776
						v3.002h-5.776v10.906c0,1.09,0.272,1.926,0.817,2.508c0.544,0.584,1.323,0.875,2.337,0.875c1.114,0,2.064-0.316,2.85-0.949
						L1369.223,2125.504z"/>
					<path style="fill:#8282A8;" d="M631.958,2153.486h3.648v28.195h-3.648V2153.486z"/>
					<path style="fill:#8282A8;" d="M656.297,2163.404c1.482,1.367,2.223,3.406,2.223,6.117v12.16h-3.458v-2.66
						c-0.608,0.938-1.476,1.654-2.603,2.146c-1.128,0.494-2.464,0.742-4.009,0.742c-2.255,0-4.06-0.545-5.415-1.635
						c-1.356-1.088-2.033-2.52-2.033-4.293s0.646-3.199,1.938-4.275c1.292-1.076,3.344-1.615,6.156-1.615h5.776v-0.723
						c0-1.57-0.456-2.773-1.368-3.609c-0.912-0.836-2.255-1.254-4.027-1.254c-1.191,0-2.357,0.197-3.497,0.59
						c-1.14,0.393-2.103,0.918-2.888,1.576l-1.52-2.736c1.038-0.836,2.28-1.475,3.724-1.918c1.444-0.443,2.977-0.666,4.598-0.666
						C652.681,2161.352,654.815,2162.035,656.297,2163.404z M652.668,2178.166c1.013-0.619,1.748-1.5,2.204-2.641v-2.811h-5.624
						c-3.091,0-4.636,1.039-4.636,3.115c0,1.014,0.393,1.811,1.178,2.395c0.785,0.582,1.875,0.873,3.269,0.873
						C650.451,2179.098,651.654,2178.787,652.668,2178.166z"/>
					<path style="fill:#8282A8;" d="M681.206,2162.645c1.545,0.861,2.754,2.064,3.629,3.609c0.873,1.545,1.31,3.332,1.31,5.357
						c0,2.027-0.438,3.82-1.31,5.377c-0.875,1.559-2.084,2.77-3.629,3.629c-1.545,0.861-3.294,1.293-5.244,1.293
						c-1.495,0-2.863-0.291-4.104-0.875c-1.242-0.582-2.268-1.43-3.078-2.545v3.191h-3.497v-28.195h3.648v11.096
						c0.811-1.064,1.824-1.867,3.04-2.414c1.216-0.543,2.546-0.816,3.99-0.816C677.912,2161.352,679.66,2161.783,681.206,2162.645z
						 M679.135,2177.824c1.026-0.594,1.836-1.43,2.432-2.508c0.595-1.076,0.893-2.311,0.893-3.705c0-1.393-0.298-2.627-0.893-3.705
						c-0.595-1.076-1.406-1.906-2.432-2.488c-1.025-0.582-2.185-0.875-3.477-0.875c-1.268,0-2.42,0.293-3.458,0.875
						c-1.039,0.582-1.849,1.412-2.432,2.488c-0.583,1.078-0.874,2.313-0.874,3.705c0,1.395,0.291,2.629,0.874,3.705
						c0.583,1.078,1.393,1.914,2.432,2.508c1.039,0.596,2.191,0.895,3.458,0.895C676.95,2178.719,678.109,2178.42,679.135,2177.824z
						"/>
					<path style="fill:#8282A8;" d="M694.429,2180.58c-1.596-0.887-2.844-2.109-3.744-3.668c-0.899-1.557-1.348-3.324-1.348-5.301
						c0-1.975,0.449-3.742,1.348-5.301c0.899-1.559,2.147-2.773,3.744-3.648c1.596-0.873,3.394-1.311,5.396-1.311
						c2.001,0,3.794,0.438,5.377,1.311c1.583,0.875,2.824,2.09,3.724,3.648c0.899,1.559,1.349,3.326,1.349,5.301
						c0,1.977-0.45,3.744-1.349,5.301c-0.9,1.559-2.141,2.781-3.724,3.668c-1.583,0.887-3.376,1.33-5.377,1.33
						C697.823,2181.91,696.025,2181.467,694.429,2180.58z M703.302,2177.824c1.026-0.594,1.83-1.43,2.414-2.508
						c0.582-1.076,0.874-2.311,0.874-3.705c0-1.393-0.292-2.627-0.874-3.705c-0.583-1.076-1.388-1.906-2.414-2.488
						c-1.026-0.582-2.185-0.875-3.477-0.875s-2.451,0.293-3.477,0.875c-1.026,0.582-1.837,1.412-2.433,2.488
						c-0.595,1.078-0.893,2.313-0.893,3.705c0,1.395,0.297,2.629,0.893,3.705c0.595,1.078,1.406,1.914,2.433,2.508
						c1.025,0.596,2.185,0.895,3.477,0.895S702.276,2178.42,703.302,2177.824z"/>
					<path style="fill:#8282A8;" d="M721.637,2162.264c1.241-0.607,2.748-0.912,4.522-0.912v3.535
						c-0.203-0.025-0.482-0.039-0.836-0.039c-1.976,0-3.528,0.59-4.655,1.768c-1.128,1.178-1.691,2.855-1.691,5.035v10.031h-3.648
						v-20.141h3.496v3.383C719.458,2163.76,720.396,2162.871,721.637,2162.264z"/>
					<path style="fill:#8282A8;" d="M748.579,2172.828h-16.34c0.228,1.773,1.007,3.199,2.337,4.275
						c1.33,1.076,2.983,1.615,4.959,1.615c2.406,0,4.344-0.811,5.814-2.434l2.014,2.357c-0.912,1.063-2.046,1.875-3.401,2.432
						c-1.355,0.557-2.869,0.836-4.541,0.836c-2.128,0-4.015-0.438-5.661-1.311c-1.648-0.875-2.921-2.096-3.82-3.668
						c-0.9-1.57-1.348-3.344-1.348-5.32c0-1.949,0.437-3.711,1.31-5.281c0.874-1.57,2.077-2.793,3.61-3.668
						c1.532-0.873,3.261-1.311,5.187-1.311c1.925,0,3.642,0.438,5.149,1.311c1.507,0.875,2.685,2.098,3.534,3.668
						c0.848,1.57,1.273,3.369,1.273,5.396C748.655,2172.006,748.629,2172.371,748.579,2172.828z M734.311,2166.025
						c-1.178,1.064-1.869,2.459-2.071,4.18h12.92c-0.203-1.695-0.893-3.084-2.071-4.16c-1.178-1.076-2.641-1.615-4.389-1.615
						C736.951,2164.43,735.488,2164.961,734.311,2166.025z"/>
					<path style="fill:#8282A8;" d="M782.057,2172.828h-16.34c0.228,1.773,1.007,3.199,2.337,4.275
						c1.33,1.076,2.983,1.615,4.959,1.615c2.406,0,4.345-0.811,5.814-2.434l2.014,2.357c-0.912,1.063-2.047,1.875-3.401,2.432
						c-1.356,0.557-2.869,0.836-4.541,0.836c-2.128,0-4.015-0.438-5.662-1.311c-1.647-0.875-2.92-2.096-3.819-3.668
						c-0.899-1.57-1.349-3.344-1.349-5.32c0-1.949,0.438-3.711,1.311-5.281c0.874-1.57,2.076-2.793,3.61-3.668
						c1.532-0.873,3.261-1.311,5.187-1.311c1.925,0,3.642,0.438,5.149,1.311c1.506,0.875,2.685,2.098,3.534,3.668
						c0.848,1.57,1.273,3.369,1.273,5.396C782.133,2172.006,782.107,2172.371,782.057,2172.828z M767.788,2166.025
						c-1.178,1.064-1.869,2.459-2.071,4.18h12.92c-0.203-1.695-0.893-3.084-2.071-4.16c-1.178-1.076-2.641-1.615-4.389-1.615
						C770.429,2164.43,768.966,2164.961,767.788,2166.025z"/>
					<path style="fill:#8282A8;" d="M798.511,2180.504c-0.532,0.455-1.191,0.805-1.976,1.045c-0.786,0.24-1.596,0.361-2.432,0.361
						c-2.027,0-3.598-0.545-4.712-1.635c-1.115-1.088-1.672-2.646-1.672-4.674v-11.059h-3.421v-3.002h3.421v-4.406h3.648v4.406
						h5.776v3.002h-5.776v10.906c0,1.09,0.272,1.926,0.817,2.508c0.544,0.584,1.323,0.875,2.337,0.875
						c1.114,0,2.065-0.316,2.85-0.949L798.511,2180.504z"/>
					<path style="fill:#8282A8;" d="M832.14,2153.486v28.195h-3.496v-3.191c-0.812,1.115-1.837,1.963-3.078,2.545
						c-1.241,0.584-2.609,0.875-4.104,0.875c-1.951,0-3.699-0.432-5.244-1.293c-1.546-0.859-2.755-2.07-3.629-3.629
						c-0.874-1.557-1.311-3.35-1.311-5.377c0-2.025,0.437-3.813,1.311-5.357c0.873-1.545,2.083-2.748,3.629-3.609
						c1.545-0.861,3.293-1.293,5.244-1.293c1.445,0,2.774,0.273,3.99,0.816c1.216,0.547,2.23,1.35,3.04,2.414v-11.096H832.14z
						 M825.224,2177.824c1.039-0.594,1.849-1.43,2.433-2.508c0.582-1.076,0.873-2.311,0.873-3.705c0-1.393-0.292-2.627-0.873-3.705
						c-0.583-1.076-1.394-1.906-2.433-2.488c-1.039-0.582-2.191-0.875-3.458-0.875c-1.292,0-2.451,0.293-3.477,0.875
						c-1.026,0.582-1.838,1.412-2.433,2.488c-0.596,1.078-0.893,2.313-0.893,3.705c0,1.395,0.297,2.629,0.893,3.705
						c0.595,1.078,1.406,1.914,2.433,2.508c1.025,0.596,2.184,0.895,3.477,0.895C823.032,2178.719,824.185,2178.42,825.224,2177.824
						z"/>
					<path style="fill:#8282A8;" d="M842.285,2180.58c-1.596-0.887-2.844-2.109-3.743-3.668c-0.899-1.557-1.349-3.324-1.349-5.301
						c0-1.975,0.449-3.742,1.349-5.301s2.148-2.773,3.743-3.648c1.596-0.873,3.394-1.311,5.396-1.311
						c2.001,0,3.793,0.438,5.377,1.311c1.583,0.875,2.824,2.09,3.724,3.648c0.899,1.559,1.35,3.326,1.35,5.301
						c0,1.977-0.451,3.744-1.35,5.301c-0.899,1.559-2.141,2.781-3.724,3.668c-1.584,0.887-3.376,1.33-5.377,1.33
						C845.68,2181.91,843.881,2181.467,842.285,2180.58z M851.158,2177.824c1.026-0.594,1.83-1.43,2.413-2.508
						c0.583-1.076,0.874-2.311,0.874-3.705c0-1.393-0.292-2.627-0.874-3.705c-0.583-1.076-1.387-1.906-2.413-2.488
						c-1.026-0.582-2.185-0.875-3.477-0.875c-1.292,0-2.451,0.293-3.477,0.875s-1.837,1.412-2.432,2.488
						c-0.595,1.078-0.893,2.313-0.893,3.705c0,1.395,0.297,2.629,0.893,3.705c0.595,1.078,1.406,1.914,2.432,2.508
						c1.026,0.596,2.185,0.895,3.477,0.895C848.974,2178.719,850.132,2178.42,851.158,2177.824z"/>
					<path style="fill:#8282A8;" d="M863.185,2153.486h3.648v28.195h-3.648V2153.486z"/>
					<path style="fill:#8282A8;" d="M877.017,2180.58c-1.596-0.887-2.844-2.109-3.743-3.668c-0.899-1.557-1.349-3.324-1.349-5.301
						c0-1.975,0.449-3.742,1.349-5.301c0.899-1.559,2.147-2.773,3.743-3.648c1.596-0.873,3.394-1.311,5.396-1.311
						c2.001,0,3.794,0.438,5.377,1.311c1.583,0.875,2.825,2.09,3.724,3.648c0.899,1.559,1.349,3.326,1.349,5.301
						c0,1.977-0.45,3.744-1.349,5.301c-0.899,1.559-2.141,2.781-3.724,3.668s-3.376,1.33-5.377,1.33
						C880.411,2181.91,878.613,2181.467,877.017,2180.58z M885.89,2177.824c1.026-0.594,1.83-1.43,2.413-2.508
						c0.582-1.076,0.874-2.311,0.874-3.705c0-1.393-0.292-2.627-0.874-3.705c-0.583-1.076-1.387-1.906-2.413-2.488
						c-1.025-0.582-2.185-0.875-3.477-0.875s-2.451,0.293-3.477,0.875c-1.025,0.582-1.837,1.412-2.432,2.488
						c-0.595,1.078-0.893,2.313-0.893,3.705c0,1.395,0.298,2.629,0.893,3.705c0.595,1.078,1.407,1.914,2.432,2.508
						c1.026,0.596,2.185,0.895,3.477,0.895S884.864,2178.42,885.89,2177.824z"/>
					<path style="fill:#8282A8;" d="M904.225,2162.264c1.24-0.607,2.749-0.912,4.522-0.912v3.535
						c-0.204-0.025-0.482-0.039-0.836-0.039c-1.976,0-3.528,0.59-4.655,1.768c-1.128,1.178-1.691,2.855-1.691,5.035v10.031h-3.648
						v-20.141h3.497v3.383C902.045,2163.76,902.982,2162.871,904.225,2162.264z"/>
					<path style="fill:#8282A8;" d="M931.166,2172.828h-16.34c0.228,1.773,1.007,3.199,2.337,4.275
						c1.33,1.076,2.983,1.615,4.959,1.615c2.406,0,4.344-0.811,5.814-2.434l2.015,2.357c-0.912,1.063-2.046,1.875-3.401,2.432
						c-1.355,0.557-2.868,0.836-4.541,0.836c-2.128,0-4.015-0.438-5.662-1.311c-1.647-0.875-2.92-2.096-3.82-3.668
						c-0.899-1.57-1.348-3.344-1.348-5.32c0-1.949,0.437-3.711,1.311-5.281c0.873-1.57,2.077-2.793,3.61-3.668
						c1.532-0.873,3.261-1.311,5.186-1.311c1.925,0,3.642,0.438,5.149,1.311c1.507,0.875,2.685,2.098,3.534,3.668
						c0.849,1.57,1.273,3.369,1.273,5.396C931.242,2172.006,931.216,2172.371,931.166,2172.828z M916.898,2166.025
						c-1.179,1.064-1.869,2.459-2.071,4.18h12.92c-0.203-1.695-0.893-3.084-2.071-4.16c-1.178-1.076-2.641-1.615-4.389-1.615
						C919.538,2164.43,918.075,2164.961,916.898,2166.025z"/>
					<path style="fill:#8282A8;" d="M977.734,2163.557c1.482,1.469,2.223,3.646,2.223,6.535v11.59h-3.648v-11.172
						c0-1.951-0.45-3.42-1.35-4.408c-0.899-0.988-2.185-1.482-3.857-1.482c-1.85,0-3.319,0.578-4.408,1.73
						c-1.09,1.152-1.634,2.805-1.634,4.959v10.373h-3.648v-11.172c0-1.951-0.45-3.42-1.349-4.408
						c-0.9-0.988-2.185-1.482-3.857-1.482c-1.85,0-3.319,0.578-4.408,1.73c-1.09,1.152-1.634,2.805-1.634,4.959v10.373h-3.648
						v-20.141h3.496v3.002c0.734-1.037,1.696-1.828,2.888-2.375c1.19-0.543,2.547-0.816,4.066-0.816c1.57,0,2.964,0.318,4.18,0.951
						c1.217,0.633,2.153,1.557,2.812,2.773c0.76-1.166,1.818-2.078,3.173-2.736c1.354-0.658,2.882-0.988,4.579-0.988
						C974.245,2161.352,976.252,2162.088,977.734,2163.557z"/>
					<path style="fill:#8282A8;" d="M1000.42,2163.404c1.482,1.367,2.223,3.406,2.223,6.117v12.16h-3.457v-2.66
						c-0.608,0.938-1.476,1.654-2.603,2.146c-1.127,0.494-2.464,0.742-4.009,0.742c-2.255,0-4.06-0.545-5.415-1.635
						c-1.356-1.088-2.033-2.52-2.033-4.293s0.646-3.199,1.938-4.275c1.293-1.076,3.344-1.615,6.156-1.615h5.776v-0.723
						c0-1.57-0.456-2.773-1.368-3.609c-0.911-0.836-2.255-1.254-4.027-1.254c-1.191,0-2.356,0.197-3.497,0.59
						c-1.14,0.393-2.103,0.918-2.887,1.576l-1.521-2.736c1.038-0.836,2.28-1.475,3.724-1.918c1.444-0.443,2.977-0.666,4.599-0.666
						C996.804,2161.352,998.938,2162.035,1000.42,2163.404z M996.791,2178.166c1.013-0.619,1.748-1.5,2.204-2.641v-2.811h-5.624
						c-3.091,0-4.637,1.039-4.637,3.115c0,1.014,0.393,1.811,1.179,2.395c0.785,0.582,1.875,0.873,3.268,0.873
						C994.574,2179.098,995.777,2178.787,996.791,2178.166z"/>
					<path style="fill:#8282A8;" d="M1028.786,2161.541v17.404c0,3.521-0.874,6.125-2.622,7.811
						c-1.748,1.684-4.357,2.525-7.827,2.525c-1.9,0-3.712-0.26-5.435-0.779c-1.723-0.52-3.116-1.26-4.18-2.223l1.748-2.811
						c0.937,0.811,2.096,1.449,3.477,1.918c1.381,0.469,2.806,0.703,4.275,0.703c2.355,0,4.098-0.557,5.225-1.672
						c1.127-1.115,1.691-2.813,1.691-5.092v-1.596c-0.861,1.039-1.919,1.818-3.173,2.336c-1.254,0.52-2.616,0.779-4.085,0.779
						c-1.926,0-3.667-0.412-5.226-1.234c-1.558-0.824-2.78-1.977-3.667-3.459c-0.887-1.482-1.33-3.172-1.33-5.072
						s0.443-3.592,1.33-5.072c0.887-1.482,2.109-2.629,3.667-3.439c1.559-0.811,3.3-1.217,5.226-1.217
						c1.519,0,2.932,0.279,4.236,0.836c1.305,0.559,2.375,1.381,3.211,2.471v-3.117H1028.786z M1021.852,2176.818
						c1.051-0.557,1.874-1.336,2.47-2.338c0.595-1,0.894-2.133,0.894-3.4c0-1.951-0.646-3.527-1.938-4.73
						c-1.292-1.203-2.951-1.807-4.978-1.807c-2.053,0-3.725,0.604-5.017,1.807c-1.292,1.203-1.938,2.779-1.938,4.73
						c0,1.268,0.297,2.4,0.893,3.4c0.595,1.002,1.419,1.781,2.47,2.338c1.052,0.557,2.248,0.836,3.592,0.836
						C1019.615,2177.654,1020.8,2177.375,1021.852,2176.818z"/>
					<path style="fill:#8282A8;" d="M1052.593,2163.574c1.508,1.482,2.262,3.654,2.262,6.518v11.59h-3.648v-11.172
						c0-1.951-0.469-3.42-1.406-4.408s-2.279-1.482-4.027-1.482c-1.977,0-3.534,0.578-4.674,1.73
						c-1.141,1.152-1.71,2.805-1.71,4.959v10.373h-3.648v-20.141h3.496v3.041c0.734-1.039,1.729-1.836,2.982-2.395
						c1.255-0.557,2.68-0.836,4.275-0.836C1049.053,2161.352,1051.086,2162.094,1052.593,2163.574z"/>
					<path style="fill:#8282A8;" d="M1075.355,2163.404c1.481,1.367,2.223,3.406,2.223,6.117v12.16h-3.458v-2.66
						c-0.608,0.938-1.476,1.654-2.603,2.146c-1.128,0.494-2.465,0.742-4.01,0.742c-2.255,0-4.06-0.545-5.415-1.635
						c-1.355-1.088-2.032-2.52-2.032-4.293s0.646-3.199,1.938-4.275s3.344-1.615,6.156-1.615h5.775v-0.723
						c0-1.57-0.455-2.773-1.367-3.609s-2.256-1.254-4.028-1.254c-1.191,0-2.356,0.197-3.496,0.59s-2.103,0.918-2.888,1.576
						l-1.521-2.736c1.039-0.836,2.28-1.475,3.725-1.918c1.443-0.443,2.977-0.666,4.598-0.666
						C1071.738,2161.352,1073.873,2162.035,1075.355,2163.404z M1071.727,2178.166c1.013-0.619,1.748-1.5,2.203-2.641v-2.811h-5.623
						c-3.092,0-4.637,1.039-4.637,3.115c0,1.014,0.393,1.811,1.179,2.395c0.784,0.582,1.874,0.873,3.268,0.873
						C1069.509,2179.098,1070.713,2178.787,1071.727,2178.166z"/>
					<path style="fill:#8282A8;" d="M1108.301,2163.404c1.481,1.367,2.223,3.406,2.223,6.117v12.16h-3.458v-2.66
						c-0.608,0.938-1.476,1.654-2.603,2.146c-1.128,0.494-2.465,0.742-4.01,0.742c-2.255,0-4.06-0.545-5.415-1.635
						c-1.355-1.088-2.032-2.52-2.032-4.293s0.646-3.199,1.938-4.275s3.344-1.615,6.156-1.615h5.775v-0.723
						c0-1.57-0.455-2.773-1.367-3.609s-2.256-1.254-4.028-1.254c-1.191,0-2.356,0.197-3.496,0.59s-2.103,0.918-2.888,1.576
						l-1.521-2.736c1.039-0.836,2.28-1.475,3.725-1.918c1.443-0.443,2.977-0.666,4.598-0.666
						C1104.684,2161.352,1106.818,2162.035,1108.301,2163.404z M1104.672,2178.166c1.013-0.619,1.748-1.5,2.203-2.641v-2.811h-5.623
						c-3.092,0-4.637,1.039-4.637,3.115c0,1.014,0.393,1.811,1.179,2.395c0.784,0.582,1.874,0.873,3.268,0.873
						C1102.454,2179.098,1103.658,2178.787,1104.672,2178.166z"/>
					<path style="fill:#8282A8;" d="M1117.287,2153.486h3.648v28.195h-3.648V2153.486z"/>
					<path style="fill:#8282A8;" d="M1127.945,2156.982c-0.469-0.457-0.703-1.014-0.703-1.672s0.234-1.223,0.703-1.691
						s1.058-0.703,1.768-0.703c0.709,0,1.298,0.223,1.767,0.664c0.469,0.445,0.703,0.996,0.703,1.654
						c0,0.684-0.234,1.26-0.703,1.729s-1.058,0.703-1.767,0.703C1129.003,2157.666,1128.414,2157.438,1127.945,2156.982z
						 M1127.889,2161.541h3.648v20.141h-3.648V2161.541z"/>
					<path style="fill:#8282A8;" d="M1157.49,2161.541v27.514h-3.648v-10.412c-0.836,1.063-1.855,1.875-3.059,2.432
						s-2.527,0.836-3.971,0.836c-1.951,0-3.699-0.432-5.244-1.293c-1.546-0.859-2.755-2.07-3.629-3.629
						c-0.874-1.557-1.312-3.35-1.312-5.377c0-2.025,0.438-3.813,1.312-5.357s2.083-2.748,3.629-3.609
						c1.545-0.861,3.293-1.293,5.244-1.293c1.494,0,2.862,0.285,4.104,0.855s2.268,1.412,3.078,2.527v-3.193H1157.49z
						 M1150.574,2177.824c1.038-0.594,1.849-1.43,2.432-2.508c0.583-1.076,0.874-2.311,0.874-3.705c0-1.393-0.298-2.621-0.893-3.686
						c-0.596-1.064-1.406-1.893-2.432-2.488c-1.026-0.596-2.173-0.895-3.439-0.895c-1.292,0-2.451,0.293-3.477,0.875
						c-1.026,0.582-1.838,1.412-2.433,2.488c-0.596,1.078-0.893,2.313-0.893,3.705c0,1.395,0.297,2.629,0.893,3.705
						c0.595,1.078,1.406,1.914,2.433,2.508c1.025,0.596,2.185,0.895,3.477,0.895
						C1148.383,2178.719,1149.535,2178.42,1150.574,2177.824z"/>
					<path style="fill:#8282A8;" d="M1183.179,2161.541v20.141h-3.458v-3.039c-0.735,1.039-1.704,1.842-2.907,2.412
						c-1.204,0.57-2.515,0.855-3.934,0.855c-2.686,0-4.801-0.742-6.346-2.223c-1.546-1.482-2.318-3.668-2.318-6.555v-11.592h3.648
						v11.174c0,1.949,0.469,3.426,1.406,4.426c0.937,1.002,2.279,1.502,4.027,1.502c1.926,0,3.445-0.584,4.561-1.748
						c1.114-1.166,1.672-2.813,1.672-4.941v-10.412H1183.179z"/>
					<path style="fill:#8282A8;" d="M1203.869,2163.404c1.481,1.367,2.223,3.406,2.223,6.117v12.16h-3.458v-2.66
						c-0.608,0.938-1.476,1.654-2.603,2.146c-1.128,0.494-2.465,0.742-4.01,0.742c-2.255,0-4.06-0.545-5.415-1.635
						c-1.355-1.088-2.032-2.52-2.032-4.293s0.646-3.199,1.938-4.275s3.344-1.615,6.156-1.615h5.775v-0.723
						c0-1.57-0.455-2.773-1.367-3.609s-2.256-1.254-4.028-1.254c-1.191,0-2.356,0.197-3.496,0.59s-2.103,0.918-2.888,1.576
						l-1.521-2.736c1.039-0.836,2.28-1.475,3.725-1.918c1.443-0.443,2.977-0.666,4.598-0.666
						C1200.252,2161.352,1202.387,2162.035,1203.869,2163.404z M1200.24,2178.166c1.013-0.619,1.748-1.5,2.203-2.641v-2.811h-5.623
						c-3.092,0-4.637,1.039-4.637,3.115c0,1.014,0.393,1.811,1.179,2.395c0.784,0.582,1.874,0.873,3.268,0.873
						C1198.022,2179.098,1199.227,2178.787,1200.24,2178.166z"/>
					<path style="fill:#8282A8;" d="M1211.905,2181.168c-0.507-0.492-0.76-1.119-0.76-1.881c0-0.734,0.253-1.348,0.76-1.842
						s1.114-0.742,1.824-0.742c0.709,0,1.305,0.242,1.786,0.723c0.48,0.482,0.722,1.102,0.722,1.861
						c0,0.762-0.247,1.389-0.741,1.881c-0.493,0.494-1.083,0.742-1.767,0.742C1213.02,2181.91,1212.412,2181.662,1211.905,2181.168z
						"/>
				</g>
			</g>
		</g>
	</g>
</g>
<g id="Layer_1">
	<g>
		<path style="fill:#ECE1EF;" d="M1289.407,1598.796c79.851-51.212,134.043-299.52-20.385-357.639
			c-154.428-58.118-125.818-204.778-255.737-314.405c-118.428-99.929-314.343-15.225-379.598,244.656
			c-46.531,185.31,7.763,417.768,44.813,427.388C1038.785,1598.796,1289.407,1598.796,1289.407,1598.796z"/>
		<g>
			<path style="fill:#3E3D51;" d="M1318.988,1595.915c0-2.842-0.663-5.146-1.481-5.146H651.979c-0.993,0-1.798,2.304-1.798,5.146
				c0,2.843,0.805,5.146,1.798,5.146h665.527C1318.325,1601.062,1318.988,1598.758,1318.988,1595.915L1318.988,1595.915z"/>
		</g>
		<g>
			<path style="fill:#FBF3FF;" d="M1180.5,886.838c161.016-0.102,184.947,71.015,192.476,192.623s-101.813,174.387-193.815,174.036
				s-164.218-36.689-181.75-181.322C979.878,927.542,1051.313,886.92,1180.5,886.838z"/>
			<g>
				<path style="fill:#B1B1DE;" d="M853.61,1280.137c0,0,81.553-24.47,84.839-23.861c3.227,0.598-9.584,27.798-7.984,36.586
					c0.513,2.82-69.801,43.03-85.429,40.063c-17.038-3.234-82.536-59.572-89.521-71.789c-7.808-13.655-21.478-47.711-12.373-60.537
					c4.149-5.845,14.204-13.628,21.18-11.983C792.066,1195.162,822.024,1244.305,853.61,1280.137z"/>
				<path style="fill:#D6D6ED;" d="M858.09,1373.634c-0.535-2.424-17.457-41.779-18.317-45.792
					c-11.239-52.454-54.505-129.157-74.537-139.026c-3.24-1.62-26.365-1.767-26.365-1.767l11.952,5.912
					c13.617,12.438,28.857,26.824,38.577,42.879c28.19,46.556,47.391,153.801,49.956,153.614
					C842.224,1389.245,859.277,1379.01,858.09,1373.634z"/>
				<path style="fill:#B1B1DE;" d="M826.97,1379.731c-39.919-23.215-46.197-78.033-63.073-107.468
					c-20.665-36.048-51.141-39.975-103.6,25.368c-52.716,65.663-40.233,185.783,14.891,255.407
					c18.86,23.82,47.756,37.484,78.139,37.419l155.832-0.336c20.473-0.044,40.509-6.277,57.188-18.148
					c20.314-14.457,32.624-33.45,43.239-59.436C1079.675,1340.966,915.772,1431.375,826.97,1379.731z"/>
				<path style="fill:#8282A8;" d="M820.979,1590.312l88.181-0.19c20.473-0.044,40.509-6.277,57.189-18.148
					c20.313-14.457,32.624-33.45,43.238-59.436c28.328-69.343,18.429-95.889-9.283-106.317l-49.002,7.397
					c0,46.645-5.181,119.16-5.181,119.16C925.059,1570.891,896.74,1588.612,820.979,1590.312z"/>
				<path style="fill:#8282A8;" d="M997.704,1441.41c-28.073-38.159-128.249-12.28-191.333-48.967
					c-39.919-23.215-46.198-78.033-63.073-107.468c-7.076-12.344-15.304-20.918-25.169-24.238
					c-30.884,15.68-46.013,144.427,6.349,193.28C803.252,1527.514,905.746,1415.436,997.704,1441.41z"/>
				<path style="fill:#F7A491;" d="M925.006,1551.622c0,0-1.474,26.031-1.483,26.084c-0.542,3.306-2.674,11.47-2.674,14.475
					c0,11.287,50.218-9.581,38.964-14.583c-1.019-0.453-7.938-6.434-8.273-10.273c-0.517-5.92-0.243-15.337-0.243-15.337
					L925.006,1551.622z"/>
				<path style="fill:#333343;" d="M959.087,1577.106c0,0-11.79,3.452-17.829,4.315c-6.039,0.863-14-6.404-18.271-4.441
					c-3.489,1.604-4.849,13.237-5.319,19.131c-0.149,1.867,1.272,3.487,3.143,3.585c13.886,0.724,66.688,3.159,80.391-0.807
					C1008.309,1596.832,983.19,1585.147,959.087,1577.106z"/>
				<path style="fill:#333343;" d="M1066.122,1525.522c0,0-11.79,3.453-17.829,4.316c-6.038,0.862-14-6.405-18.271-4.441
					c-3.488,1.604-4.849,13.236-5.319,19.131c-0.148,1.867,1.49,3.981,3.355,4.165c15.406,1.518,66.476,2.579,80.178-1.388
					C1115.346,1545.248,1090.226,1533.564,1066.122,1525.522z"/>
				<path style="fill:#F7A491;" d="M1016.642,1504.426c0,0,14.12,19.865,15.442,24.251c1.321,4.385,34.048,7.599,34.048-3.147
					c0-0.14-10.149-8.394-13.016-12.154c-4.794-6.289-15.97-27.301-15.97-27.301L1016.642,1504.426z"/>
				<path style="fill:#333343;" d="M712.552,1071.744c0,0-15.938-10.776-22.675,8.103c0,0-9.004-2.728-12.856,6.523
					c0,0-15.436-1.16-14.17,21.258c0,0-7.758,0.24-6.787,9.31c0.972,9.071,6.771,13.979,6.771,13.979s-3.491,4.062,0.207,11.782
					c3.145,6.564,9.104,6.354,9.104,6.354s4.121,11.323,9.956,13.719c5.835,2.396,12.349-0.812,12.349-0.812s3.224,5.92,9.001,4.054
					c5.778-1.865,11.844-9.1,19.007-8.029c7.164,1.071,23.719-5.385,23.719-5.385s17.359-12.824,7.252-31.226
					c0,0,8.101-11.368-3.173-20.375c0,0,2.678-18.572-12.345-25.866C722.892,1067.839,712.552,1071.744,712.552,1071.744z"/>
				<path style="fill:#3E3D51;" d="M965.225,1353.109c-13.25-6.519-152.273,15.132-152.273,15.132l-16.667-26.568l-54.267,12.313
					c0,0-15.358,17.681-15.993,25.6c-2.057,25.623,9.689,68.716,22.934,72.904c47.176,14.919,148.603-15.572,162.8-18.831
					c0,0-0.516,22.983,3.787,69.894c1.7,18.536,3.926,38.968,5.99,56.839c12.416-0.029,24.832-0.261,37.248-1.896
					C958.784,1558.495,978.477,1359.627,965.225,1353.109z"/>
				<path style="fill:#333343;" d="M1053.348,1501.62c-23.781-60.069-75.395-177.957-94.097-181.272
					c-24.519-4.345-146.319,47.939-146.319,47.939l123.575-2.578c0,0,0.681,1.222,6.06,27.123
					c4.194,20.191,50.681,91.283,77.186,130.669C1031.979,1517.973,1044.085,1512.869,1053.348,1501.62z"/>
				<path style="fill:#FF7685;" d="M739.46,1187.491c0,0-30.771-0.349-34.041,0.374c-3.27,0.722,2.583,125.579,6.586,172.17
					c4.002,46.592,10.417,53.582,10.417,53.582s43.884,0.17,74.21-9.402c31.532-9.953,39.024-46.581,39.024-46.581
					s-28.561-83.765-40.01-109.723c-7.324-16.604-21.955-35.292-36.773-50.51C750.525,1188.828,739.46,1187.491,739.46,1187.491z"/>
				<path style="fill:#F7A491;" d="M730.807,1164.771l6.175,16.845c0,0,10.766,23.856,5.087,30.168
					c-5.679,6.313-35.429-24.215-35.429-24.215l-7.4-44.507L730.807,1164.771z"/>
				<path style="fill:#F47458;" d="M701.641,1157.485c8.885,13.776,24.192,20.069,34.401,21.567l-5.235-14.282l-31.566-21.708
					L701.641,1157.485z"/>
				<path style="fill:#F7A491;" d="M704.619,1093.397c12.647-7.734,29.245-1.864,34.45,11.784
					c2.263,5.933,4.787,13.463,6.802,21.861c4.847,20.199-1.292,42.253-10.501,44.287c-9.209,2.034-37.559-5.473-44.837-34.06
					C686.038,1119.62,691.347,1101.514,704.619,1093.397z"/>
				<path style="fill:#F7A491;" d="M697.82,1138.047c0.988,4.474-1.177,8.755-4.835,9.563c-3.659,0.808-7.424-2.164-8.413-6.638
					c-0.988-4.473,1.177-8.755,4.834-9.563C693.066,1130.602,696.832,1133.574,697.82,1138.047z"/>
				<path style="fill:#D6D6ED;" d="M706.58,1187.438c0,0-35.728-1.42-43.858,6.093c-5.17,4.775,5.302,52.582,5.302,52.582
					s29.144,55.786,33.381,88.418c7.038,54.199,13.457,87.499,16.235,89.292c16.056,5.766,69.137-5.2,71.344-11.472
					C813.35,1343.098,706.58,1187.438,706.58,1187.438z"/>
				<path style="fill:#333343;" d="M879.363,1302.228l23.72-100.15c0.614-2.592,2.93-4.424,5.595-4.424h43.066
					c3.775,0,6.525,3.576,5.557,7.225l-26.157,98.551c-0.648,2.439-2.81,4.171-5.331,4.271l-40.629,1.598
					C881.383,1309.446,878.487,1305.929,879.363,1302.228z"/>
				<path style="fill:#F8A492;" d="M918.662,1299.641c-1.822,0.352-4.835,1.008-6.921,1.771c-2.253,0.825-4.583,0.878-6.58,1.29
					c-3.965,0.819-6.847,1.465-6.789,1.287c0.074-0.23-0.819-0.608,1.25-1.394c2.488-0.945,8.209-1.819,11.764-3.483
					c2.015-0.943,6.345-2.667,6.345-2.667s6.068-3.789,5.967-4.207c-0.548-2.256-5.418-0.795-7.992,0.833
					c-2.168,0.225-6.672,2.164-6.672,2.164s-9.974,1.942-10.25,0.573c-0.118-0.583,5.867-2.486,11.452-5.245
					c5.185-2.562,10.01-5.969,9.666-7.038c-0.584-1.813-6.642,0.439-6.642,0.439s-4.16,1.797-5.586,2.292
					c-1.673,0.58-6.81,1.943-6.81,1.943s-18.093,3.941-18.241,2.622c-0.148-1.319,0.86-4.876,1.902-5.5
					c1.041-0.622,3.544-0.795,4.586-1.417c1.04-0.623,1.872-2.296,1.21-3.589c-0.66-1.293-6.836-0.151-6.836-0.151
					s-5.015,0.966-7.717,3.234c-9.36,7.853-7.681,9.043-8.909,10.019c-1.45,1.153-26.153,3.86-26.153,3.86s-72.756,8.446-76.7,8.768
					l2.553,24.223c4.335,0.444,88.301-14.187,96.919-15.906c0,0,10.984,1.638,17.92,2.444c6.935,0.807,13.94-1.449,15.934-1.515
					c0.295-0.01,6.93-0.61,14.938-3.468c6.901-2.464-0.742-3.19-0.742-3.19s-13.583,2.338-13.568,1.265
					c0.012-0.828,7.499-1.679,15.163-4.327c1.971-0.681,3.913-1.361,5.692-1.999
					C923.486,1301.901,923.822,1298.645,918.662,1299.641z"/>
				<path style="fill:#FBF3FF;" d="M753.127,1294.188c0,0,84.867-0.609,88.153,0c3.227,0.598,4.135,22.376,5.735,31.164
					c0.513,2.82-89.455,12.897-105.083,9.93c-17.038-3.234-59.947-50.374-69.89-66.28c-8.339-13.343-26.136-47.299-21.71-62.161
					c2.674-8.98,16.56-19.119,24.141-16.77C704.713,1199.445,753.127,1294.188,753.127,1294.188z"/>
				<g>
					<path style="fill:#F7A491;" d="M945.4,1254.223c1.631-0.636,3.469,0.336,3.803,2.056c0.341,1.76,0.351,3.866-0.993,5.211
						c-2.669,2.669-20.687,4.671-20.687,2.002C927.523,1261.439,939.744,1256.431,945.4,1254.223z"/>
					<path style="fill:#F7A491;" d="M949.365,1262.047c0,0,2.072,6.645,0.52,6.764c-1.553,0.119-20.864,2.829-21.819,0.561
						C927.11,1267.103,946.815,1260.793,949.365,1262.047z"/>
					<path style="fill:#F7A491;" d="M950.16,1269.506c0,0,0.744,2.942-0.748,4.771c-1.492,1.827-19.598,1.867-20.44-0.955
						C928.127,1270.5,949.383,1267.349,950.16,1269.506z"/>
					<path style="fill:#F7A491;" d="M946.025,1276.287c0,0,0.377,2.25-0.373,3.356c-0.75,1.107-14.148,1.816-15.895-0.792
						C928.009,1276.242,944.038,1273.611,946.025,1276.287z"/>
				</g>
			</g>
			<g>
				<g>
					<path style="fill:#8282A8;" d="M1255.478,1173.652l-38.495-36.125l-19.5,36.007c0,0,8.022,5.504,18.457,12.317
						L1255.478,1173.652z"/>
					<path style="fill:#B1B1DE;" d="M1201.148,1193.953c3.573-6.424,7.645-13.813,11.701-21.331
						c11.85-21.954,15.618-33.5,7.687-43.113c-7.931-9.612-15.765-8.848-15.765-8.848l-23.934,17.866
						c0,0-8.505,31.973-13.771,55.425H1201.148z"/>
					<path style="fill:#F7A491;" d="M1150.442,1062.16l-17.814,19.916l-14.589,14.396c0,0-9.25-13.036-10.263-20.636
						c-0.145-1.085,0.448-2.634,0.623-3.299c1.396-5.312-7.069-9.909-7.069-9.909s-4.072,0.22-4.49,7.209s5.131,7.986,5.131,7.986
						s1.06,20.361,7.926,33.102c3.598,6.676,19.505-4.601,31.505-15.542c10.091-9.2,16.849-17.919,16.849-17.919L1150.442,1062.16z"
						/>
					<path style="fill:#E26477;" d="M1154.676,1058.34c-0.617-0.275-1.472-0.269-2.563,0.625
						c-2.383,1.954-23.857,25.597-23.857,25.597s6.748,11.905,14.3,13.68l11.938-8.655l1.338-29.293
						C1155.868,1059.471,1155.427,1058.676,1154.676,1058.34z"/>
					<path style="fill:#333343;" d="M1196.933,983.009c-12.165-2.701-24.286,2.793-28.9,13.627
						c-6.933-0.197-13.908,2.4-18.688,7.018c-9.432,9.109-14.667,26.229-2.779,33.265c2.738,13.824,13.277,18.788,23.422,16.283
						c9.041,8.897,28.39,3.479,36.263-9.115c10.214,0.385,20.407-4.797,24.839-13.593c1.063-2.111,2.548-5.418,3.004-5.832
						c-0.532,0.546,24.06-11.726,15.077-34.035C1240.003,967.863,1209.21,968.5,1196.933,983.009z"/>
					<path style="fill:#FF7685;" d="M1169.359,1051.327l16.666-4.721l5.141,23.788c0,0-0.334,24.708,6.52,34.177
						s12.604,16.104,12.604,16.104s-5.637,13.891-32.481,20.676c0,0-6.174-19.086-8.494-24.715
						c-2.321-5.629-17.206-27.248-18.144-32.966c-0.938-5.72-0.326-22.639,0.733-24.417c1.061-1.778,6.763-4.445,6.763-4.445
						L1169.359,1051.327z"/>
					<path style="fill:#F7A491;" d="M1165.814,1038.512c0,0,0.355,1.945,0.902,4.409c0.685,3.077,1.671,6.963,2.646,8.888
						c1.758,3.469,1.629,14.246-5.989,17.255c-7.617,3.01-3.808-10.547-4.465-14.361c-0.656-3.813-5.186-16.975-5.186-16.975
						L1165.814,1038.512z"/>
					<path style="fill:#F47458;" d="M1155.702,1043.278c-1.046-3.039-1.979-5.549-1.979-5.549l12.091,0.783
						c0,0,0.367,2.01,0.931,4.533C1162.615,1045.689,1158.724,1045.295,1155.702,1043.278z"/>
					<path style="fill:#F7A491;" d="M1157.283,1011.092c0,0,5.019,0.047,8.945,3.921c3.928,3.874,8.816,16.714,0.418,25.009
						s-17.857,1.16-19.826-7.364C1144.853,1024.134,1144.226,1012.328,1157.283,1011.092z"/>
					<path style="fill:#F7A491;" d="M1144.017,1030.462c1.274,1.885,3.198,2.81,4.296,2.067c1.098-0.743,0.953-2.873-0.321-4.757
						c-1.275-1.884-3.198-2.81-4.296-2.067S1142.741,1028.578,1144.017,1030.462z"/>
					<path style="fill:#F7A491;" d="M1168.945,1026.865c-0.227,2.375,0.891,4.424,2.496,4.578s3.091-1.648,3.317-4.022
						c0.227-2.375-0.892-4.425-2.496-4.578C1170.657,1022.689,1169.172,1024.49,1168.945,1026.865z"/>
				</g>
				<g>
					<path style="fill:#3E3D51;" d="M1216.965,918.155L1103.864,930.5c-14.948,1.632-25.802,14.542-24.242,28.834l24.921,228.292
						c1.56,14.293,14.943,24.557,29.892,22.925l113.101-12.346c14.949-1.632,25.803-14.541,24.242-28.834l-24.92-228.293
						C1245.297,926.787,1231.914,916.523,1216.965,918.155z M1258.971,1152.86c0.899,8.244-5.36,15.689-13.982,16.63
						l-114.262,12.473c-8.622,0.941-16.342-4.979-17.241-13.222l-23.049-211.149c-0.899-8.244,5.36-15.69,13.982-16.63
						l114.263-12.473c8.621-0.941,16.34,4.978,17.24,13.222L1258.971,1152.86z"/>
				</g>
				<path style="fill:#F7A491;" d="M1187.404,1052.763c0,0,31.609-20.23,38.813-24.282c7.203-4.052,30.575-22.846,31.46-23.605
					c0.885-0.759-0.031-15.79,1.803-15.349c1.834,0.441,0.07,7.713,2.219,7.837c2.15,0.125,15.743-12.592,16.303-11.329
					c1.045,2.363-8.023,8.099-7.327,9.109c0.696,1.011,8.916-6.854,10.687-5.592c1.771,1.263-8.473,6.728-8.346,7.739
					c0.128,1.012,10.316-3.862,10.43-1.652c0.063,1.2-9.163,4.117-8.34,5.254c0.822,1.137,8.218-0.006,8.156,1.384
					c-0.063,1.391-6.322,0.131-9.607,2.284c-3.286,2.152-6.764,2.028-10.995,6.963c-4.231,4.935-17.113,24.038-28.551,31
					c-11.437,6.963-36.667,22.417-36.667,22.417L1187.404,1052.763z"/>
				<path style="fill:#F7A491;" d="M1092.741,1079.461l1.188-3.377c0,0,0.608-2.472,2.504-3.345c1.896-0.873,0.99-3.315-0.97-2.249
					c-1.96,1.066-3.097,2.011-3.097,2.011s3.403-3.544,3.382-3.845c-0.12-1.688-2.609-1.505-4.885,1.813
					C1088.588,1073.787,1092.741,1079.461,1092.741,1079.461z"/>
				<path style="fill:#F7A491;" d="M1097.055,1067.226c0,0,3.545-5.621,4.9-4.213s2.261,5.146,1.44,5.141s-1.607-2.62-3.481-1.223
					C1099.392,1067.32,1096.791,1069.243,1097.055,1067.226z"/>
				<path style="fill:#FF7685;" d="M1191.177,1072.551c-5.151-12.757-5.151-25.944-5.151-25.944
					c12.109-4.651,24.703-9.486,24.703-9.486c4.078,11.692,3.451,21.06,3.451,21.06
					C1202.257,1063.374,1191.177,1072.551,1191.177,1072.551z"/>
			</g>
			<path style="fill:#FBF3FF;" d="M1006.533,1075.66c-54.591,30.741-66.887,92.899-66.887,92.899
				c25.473-46.449,78.336-44.241,78.336-44.241C1016.1,1089.487,1006.533,1075.66,1006.533,1075.66z"/>
		</g>
	</g>
</g>
</svg>
